<?xml version="1.0" standalone="no"?>
<!DOCTYPE svg PUBLIC "-//W3C//DTD SVG 1.1//EN" "http://www.w3.org/Graphics/SVG/1.1/DTD/svg11.dtd" >
<svg xmlns="http://www.w3.org/2000/svg" xmlns:xlink="http://www.w3.org/1999/xlink" version="1.1">
<metadata></metadata>
<defs>
<font id="mazeletterpalazzo" horiz-adv-x="2048" >
<font-face units-per-em="2048" ascent="1536" descent="-512" />
<missing-glyph horiz-adv-x="512" />
<glyph horiz-adv-x="0" />
<glyph horiz-adv-x="0" />
<glyph unicode=" "  horiz-adv-x="512" />
<glyph unicode="&#x09;" horiz-adv-x="512" />
<glyph unicode="&#xa0;" horiz-adv-x="512" />
<glyph unicode="!" horiz-adv-x="1024" d="M-117 63l1024 1024l-450 449l55 55l567 -567h-2l64 -63l-1078 -1078zM-117 -449l1078 1078l180 -180l-1078 -1078zM-117 575l512 512l-450 449l55 55l567 -567h-2l64 -63l-566 -566zM395 -449l566 566l180 -180l-566 -566z" />
<glyph unicode="&#x22;" d="M-117 63l512 512l-450 449l55 55l629 -630l-566 -566zM-55 1536l55 55l1141 -1142l-768 -768l194 -193l-55 -55l-373 374l768 768zM457 1536l55 55l705 -706l202 202l-450 449l55 55l1079 -1079l-55 -55l-449 450l-256 -256zM651 -193l822 822l436 -436l-822 -822 l-180 180l768 768l-76 76l-768 -768zM1481 1536l55 55l567 -567l-55 -55zM1675 -193l310 310l180 -180l-256 -256l194 -193l-55 -55z" />
<glyph unicode="#" d="M-117 63l256 256l-194 193l55 55l311 -311h-2l64 -63l-310 -310zM-117 -449l768 768l-706 705l55 55l705 -706l458 458l-706 705l55 55l705 -706l768 768l180 -180l-768 -768l332 -332l256 256l180 -180l-256 -256l194 -193l-55 -55l-193 194l-458 -458l194 -193l-55 -55 l-193 194l-256 -256l-180 180l256 256l-332 332l-768 -768zM-55 1536l55 55l823 -823l-55 -55zM395 -449l310 310l180 -180l-310 -310zM885 193l332 -332l458 458l-332 332zM969 1536l55 55l193 -194l256 256l180 -180l-310 -310l-63 64v-2zM1675 831l310 310l180 -180 l-310 -310zM1737 -256l55 55l311 -311l-55 -55z" />
<glyph unicode="$" d="M-117 -449l512 512l-450 449l55 55l193 -194l202 202l-512 512l566 566l256 -256l256 256l180 -180l-310 -310l-256 256l-458 -458l512 -512l-256 -256l450 -449l-55 -55l-193 194l-512 -512zM457 1024l55 55l193 -194l256 256l374 -373l-55 -55l-193 194l-202 -202 l844 -844l256 256l180 -180l-566 -566l-256 256l-256 -256l-180 180l310 310l256 -256l202 202l-332 332l-256 -256l-374 373l55 55l193 -194l202 202zM1225 1280l55 55l193 -194l512 512l180 -180l-512 -512l256 -256l-256 -256l194 -193l-55 -55l-373 374l256 256z" />
<glyph unicode="%" d="M-117 63l256 256l-194 193l55 55l373 -374l-310 -310zM-117 -449l566 566l512 -512l256 256l256 -256l512 512l180 -180l-566 -566l-256 256l-256 -256l-512 512l-512 -512zM-55 1024l55 55l449 -450l256 256l436 -436l-256 -256l194 -193l-55 -55l-373 374l256 256 l-76 76l-256 -256zM139 1343l310 310l436 -436l-310 -310zM391 1217l58 -58l184 184l-58 58zM449 1141l61 63zM907 1087l256 256l-194 193l55 55l373 -374l-310 -310zM1163 319l310 310l436 -436l-310 -310zM1163 829l303 324l187 -176l-2 -2l452 -463l-55 -55l-449 463 l-249 -265zM1415 193l58 -58l184 184l-58 58zM1473 117l61 63zM1675 1343l310 310l180 -180l-256 -256l194 -193l-55 -55z" />
<glyph unicode="&#x26;" d="M-117 575l310 310l1280 -1280l512 512l180 -180l-566 -566l-1280 1280l-202 -202l768 -768l-310 -310l-630 629l55 55l449 -450l202 202zM-55 1536l55 55l1473 -1474l202 202l-1024 1024l310 310l768 -768l202 202l-450 449l55 55l629 -630l-310 -310l-768 768l-202 -202 l1024 -1024l-310 -310l-118 117z" />
<glyph unicode="'" d="M-117 63l512 512l-450 449l55 55l629 -630l-566 -566zM-117 -449l1024 1024l-768 768l310 310l180 -180l-256 -256l768 -768l-1078 -1078zM395 -449l822 822l256 -256l512 512l180 -180l-1078 -1078l-180 180l512 512l-76 76l-768 -768zM713 1280l55 55l705 -706l202 202 l-706 705l55 55l885 -886l-310 -310zM1419 -449l566 566l180 -180l-566 -566zM1675 1343l310 310l180 -180l-256 -256l194 -193l-55 -55z" />
<glyph unicode="(" horiz-adv-x="512" d="M-117 -449l256 256l-194 193l55 55l373 -374l-310 -310zM-117 575l566 566l180 -180l-512 -512l450 -449l-55 -55zM-117 1087l256 256l-194 193l55 55l373 -374l-310 -310z" />
<glyph unicode=")" horiz-adv-x="512" d="M-117 63l512 512l-450 449l55 55l629 -630l-566 -566zM139 -193l310 310l180 -180l-256 -256l194 -193l-55 -55zM139 1343l310 310l180 -180l-256 -256l194 -193l-55 -55z" />
<glyph unicode="*" d="M-117 63l256 256l-194 193l55 55l373 -374l-310 -310zM-117 -449l1334 1334l180 -180l-1334 -1334zM-117 1087l310 310l180 -180l-310 -310zM139 831l310 310l374 -373l-55 -55l-193 194l-202 -202l194 -193l-55 -55zM457 1536l55 55l311 -311l-55 -55zM651 -193l310 310 l180 -180l-256 -256l194 -193l-55 -55zM907 1087l310 310l180 -180l-310 -310zM1225 256l55 55l823 -823l-55 -55zM1225 -256l55 55l311 -311l-55 -55zM1419 575l256 256l-194 193l55 55l373 -374l-256 -256l194 -193l-55 -55zM1481 1536l55 55l311 -311l-55 -55z" />
<glyph unicode="+" horiz-adv-x="512" d="M-117 63l256 256l-194 193l55 55l373 -374l-310 -310zM-117 1087l256 256l-194 193l55 55l373 -374l-310 -310zM139 -193l310 310l180 -180l-256 -256l194 -193l-55 -55zM139 831l310 310l180 -180l-256 -256l194 -193l-55 -55z" />
<glyph unicode="," horiz-adv-x="512" d="M-117 63l256 256l-194 193l55 55l373 -374l-310 -310zM-117 -449l566 566l180 -180l-566 -566zM-55 1024l55 55l567 -567l-55 -55zM139 1343l310 310l180 -180l-256 -256l194 -193l-55 -55z" />
<glyph unicode="-" horiz-adv-x="512" d="M-117 63l566 566l180 -180l-566 -566zM-117 575l566 566l180 -180l-566 -566zM-117 1087l256 256l-194 193l55 55l373 -374l-310 -310zM139 -193l310 310l180 -180l-256 -256l194 -193l-55 -55z" />
<glyph unicode="." horiz-adv-x="512" d="M-117 -449l512 512l-512 512l512 512l-450 449l55 55l629 -630l-512 -512l512 -512l-566 -566z" />
<glyph unicode="/" horiz-adv-x="1024" d="M-117 575l256 256l-194 193l55 55l311 -311h-2l64 -63l-310 -310zM-55 0l55 55l567 -567l-55 -55zM-55 1536l55 55l823 -823h-2l64 -63l-512 -512l706 -705l-55 -55l-823 823h2l-64 63l512 512zM457 1536l55 55l567 -567l-55 -55zM651 319l310 310l180 -180l-256 -256 l194 -193l-55 -55l-311 311h2z" />
<glyph unicode="0" d="M-117 63l310 310l886 -885l-55 -55l-705 706l-256 -256zM-117 -449l310 310l374 -373l-55 -55l-193 194l-256 -256zM-55 1024l55 55l193 -194l768 768l180 -180l-822 -822zM-55 1536l55 55l193 -194l256 256l180 -180l-310 -310zM395 575l822 822l948 -948l-822 -822z M647 449l570 -570l696 696l-570 570zM889 575l328 328l395 -395l59 -59l-328 -328l-395 395zM1159 449l58 -58l184 184l-58 58zM1419 -449l566 566l180 -180l-566 -566zM1481 1536l55 55l567 -567l-55 -55z" />
<glyph unicode="1" d="M-117 63l1590 1590l180 -180l-1590 -1590zM-117 -449l1590 1590l180 -180l-1590 -1590zM-117 575l310 310l180 -180l-310 -310zM-117 1087l566 566l180 -180l-566 -566zM395 -449l310 310l180 -180l-310 -310zM395 1087l566 566l180 -180l-566 -566zM907 63l1078 1078 l180 -180l-1078 -1078zM907 -449l1078 1078l180 -180l-1078 -1078zM1419 -449l566 566l180 -180l-566 -566zM1675 1343l310 310l180 -180l-310 -310z" />
<glyph unicode="2" d="M-117 63l512 512l-194 193l55 55l193 -194l458 458l-194 193l55 55l193 -194l512 512l63 -64v2l311 -311l-55 -55l-193 194l-458 -458l194 -193l-55 -55l-193 194l-458 -458l194 -193l-55 -55l-193 194l-458 -458l194 -193l-55 -55l-311 311h2zM-117 1087l256 256 l-194 193l55 55l193 -194l256 256l180 -180l-256 -256l194 -193l-55 -55l-193 194l-256 -256zM395 -449l256 256l-194 193l55 55l193 -194l458 458l-194 193l55 55l193 -194l458 458l-194 193l55 55l193 -194l256 256l180 -180l-256 -256l194 -193l-55 -55l-193 194 l-458 -458l194 -193l-55 -55l-193 194l-458 -458l194 -193l-55 -55l-193 194l-256 -256zM1225 -256l55 55l193 -194l458 458l-194 193l55 55l311 -311h-2l64 -63l-566 -566l-63 64v-2z" />
<glyph unicode="3" d="M-117 -449l256 256l-194 193l55 55l193 -194l202 202l-450 449l55 55l449 -450l202 202l-706 705l55 55l823 -823h-2l64 -63l-822 -822zM-55 1536l55 55l961 -962l202 202l-706 705l55 55l705 -706l202 202l-450 449l55 55l449 -450l202 202l-194 193l55 55l193 -194 l256 256l180 -180l-1078 -1078l-63 64v-2zM395 -449l1590 1590l180 -180l-1590 -1590zM907 -449l1078 1078l180 -180l-1078 -1078zM1419 -449l566 566l180 -180l-566 -566z" />
<glyph unicode="4" d="M-117 63l566 566l692 -692l-256 -256l194 -193l-55 -55l-193 194l-256 -256zM-117 575l1078 1078l256 -256l256 256l692 -692l-566 -566l-692 692l256 256l-76 76l-458 -458l844 -844l512 512l180 -180l-512 -512l450 -449l-55 -55l-449 450l-256 -256l-180 180l256 256 l-844 844l-512 -512zM-55 1536l55 55l311 -311l-55 -55zM135 -63l314 -314l440 440l-314 314zM449 -395l18 18zM1159 961l314 -314l440 440l-314 314zM1473 629l18 18z" />
<glyph unicode="5" d="M-117 63l256 256l-194 193l55 55l373 -374l-310 -310zM-117 1087l566 566l180 -180l-566 -566zM139 -193l310 310l256 -256l512 512l180 -180l-512 -512l194 -193l-55 -55l-449 450l-202 -202l194 -193l-55 -55zM139 831l822 822l180 -180l-768 -768l332 -332l512 512 l692 -692l-566 -566l-180 180l512 512l-332 332l-512 -512zM651 831l822 822l180 -180l-256 -256l76 -76l512 512l180 -180l-566 -566l-256 256l-512 -512zM1419 -449l566 566l180 -180l-566 -566zM1675 831l310 310l180 -180l-256 -256l194 -193l-55 -55z" />
<glyph unicode="6" d="M-117 -449l256 256l-194 193l55 55l373 -374l-310 -310zM-117 575l512 512l-76 76l-256 -256l-180 180l310 310l436 -436l-566 -566zM139 319l310 310l436 -436l-310 -310l-86 84zM391 193l58 -58l184 184l-58 58zM395 -449l310 310l374 -373l-55 -55l-193 194l-256 -256 zM449 117l61 63zM457 1536l55 55l193 -194l256 256l180 -180l-310 -310l-86 84zM651 831l310 310l436 -436l-310 -310zM903 705l58 -58l184 184l-58 58zM907 63l310 310l436 -436l-310 -310zM961 629l61 63zM1159 -63l58 -58l184 184l-58 58zM1163 1343l310 310l180 -180 l-256 -256l76 -76l512 512l180 -180l-566 -566zM1217 -139l61 63zM1419 -449l566 566l180 -180l-566 -566zM1419 575l566 566l180 -180l-512 -512l76 -76l256 256l180 -180l-310 -310z" />
<glyph unicode="7" d="M-117 63l256 256l-194 193l55 55l373 -374l-310 -310zM-117 -449l768 768l-512 512l822 822l256 -256l256 256l180 -180l-310 -310l-256 256l-714 -714l512 -512l-822 -822zM-117 1087l566 566l180 -180l-566 -566zM395 -449l768 768l-512 512l310 310l180 -180 l-256 -256l512 -512l-822 -822zM1163 -193l512 512l-512 512l822 822l180 -180l-768 -768l512 -512l-566 -566zM1419 -449l566 566l180 -180l-566 -566zM1675 831l310 310l180 -180l-256 -256l194 -193l-55 -55z" />
<glyph unicode="8" d="M-117 575l256 256l-194 193l55 55l373 -374l-310 -310zM-55 0l55 55l567 -567l-55 -55zM-55 1536l55 55l449 -450l202 202l-194 193l55 55l373 -374l-310 -310q-160 158 -315.5 314.5t-314.5 314.5zM139 319l310 310l630 -629l-55 -55q-113 113 -222.5 226.5 t-226.5 223.5l-202 -202l706 -705l-55 -55zM651 831l310 310l118 -119l1024 -1022l-55 -55l-961 962l-202 -202l768 -768l-256 -256l194 -193l-55 -55l-373 374l256 256zM969 1536l55 55l1079 -1079l-55 -55zM1481 1536l55 55l567 -567l-55 -55zM1737 -256l55 55l311 -311 l-55 -55z" />
<glyph unicode="9" d="M-117 575l1078 1078l180 -180l-1024 -1024l706 -705l-55 -55zM-117 1087l566 566l180 -180l-566 -566zM-55 0l55 55l567 -567l-55 -55zM395 575l310 310l180 -180l-256 -256l768 -768l-310 -310l-180 180l256 256zM907 575l310 310l886 -885l-55 -55l-705 706l-202 -202 l962 -961l-55 -55zM907 1087l310 310l886 -885l-55 -55l-705 706l-256 -256zM1481 1536l55 55l567 -567l-55 -55z" />
<glyph unicode=":" horiz-adv-x="512" d="M-117 63l512 512l-512 512l566 566l180 -180l-512 -512l512 -512l-512 -512l450 -449l-55 -55z" />
<glyph unicode=";" horiz-adv-x="512" d="M-117 63l566 566l180 -180l-566 -566zM-117 575l256 256l-194 193l55 55l373 -374l-310 -310zM-55 1536l55 55l567 -567l-55 -55zM139 -193l310 310l180 -180l-256 -256l194 -193l-55 -55z" />
<glyph unicode="&#x3c;" horiz-adv-x="512" d="M-117 -449l310 310l180 -180l-310 -310zM-117 575l566 566l180 -180l-512 -512l450 -449l-55 -55zM-55 1536l55 55l311 -311l-55 -55z" />
<glyph unicode="=" horiz-adv-x="512" d="M-117 -449l310 310l374 -373l-55 -55l-193 194l-256 -256zM-55 512l55 55l567 -567l-55 -55zM-55 1024l55 55l567 -567l-55 -55zM-55 1536l55 55l193 -194l256 256l180 -180l-310 -310z" />
<glyph unicode="&#x3e;" horiz-adv-x="512" d="M-117 63l512 512l-450 449l55 55l629 -630l-566 -566zM139 1343l310 310l180 -180l-310 -310zM201 -256l55 55l311 -311l-55 -55z" />
<glyph unicode="?" horiz-adv-x="1024" d="M-117 63l1024 1024l-450 449l55 55l567 -567h-2l64 -63l-768 -768l332 -332l256 256l180 -180l-566 -566l-180 180l256 256l-332 332l-256 -256zM-117 -449l310 310l180 -180l-310 -310zM-117 575l512 512l-450 449l55 55l567 -567h-2l64 -63l-566 -566zM651 319l310 310 l180 -180l-310 -310z" />
<glyph unicode="@" d="M-117 1087l566 566l180 -180l-566 -566zM-55 0l55 55l567 -567l-55 -55zM-55 512l55 55l705 -706l714 714l-332 332l-256 -256l-180 180l310 310l63 -64v2l567 -567h-2l64 -63l-822 -822l-63 64v-2zM139 831l822 822l63 -64v2l1079 -1079h-2l64 -63l-1078 -1078l-180 180 l1024 1024l-844 844l-714 -714l332 -332l256 256l180 -180l-310 -310l-63 64v-2l-567 567h2zM1419 -449l566 566l180 -180l-566 -566zM1675 1343l310 310l180 -180l-256 -256l194 -193l-55 -55l-311 311h2z" />
<glyph unicode="A" horiz-adv-x="512" d="M-117 63l566 566l180 -180l-566 -566zM-117 -449l566 566l180 -180l-566 -566zM-117 575l566 566l180 -180l-566 -566zM-117 1087l566 566l180 -180l-566 -566z" />
<glyph unicode="B" d="M-117 63l256 256l-194 193l55 55l373 -374l-310 -310zM-117 -449l768 768l-706 705l55 55l705 -706l768 768l180 -180l-1590 -1590zM-55 1536l55 55l449 -450l512 512l180 -180l-566 -566zM395 -449l310 310l374 -373l-55 -55l-193 194l-256 -256zM651 831l822 822 l692 -692q-256 -258 -511 -512t-513 -512l450 -449l-55 -55l-629 630l1024 1024l-332 332l-768 -768zM1419 63l566 566l180 -180l-512 -512l450 -449l-55 -55z" />
<glyph unicode="C" d="M-117 -449l822 822l512 -512l458 458l-256 256l310 310l374 -373l-55 -55l-193 194l-202 -202l256 -256l-566 -566l-512 512l-768 -768zM-117 1087l566 566l180 -180l-566 -566zM-55 512l55 55l193 -194l202 202l-256 256l566 566l256 -256l202 202l-194 193l55 55 l373 -374l-310 -310l-256 256l-458 -458l256 -256l-310 -310zM395 -449l310 310l374 -373l-55 -55l-193 194l-256 -256zM713 768l55 55l193 -194l714 714l-194 193l55 55l567 -567l-55 -55l-193 194l-714 -714l194 -193l-55 -55zM1419 -449l566 566l180 -180l-566 -566z" />
<glyph unicode="D" d="M-117 575l256 256l-194 193l55 55l373 -374l-310 -310zM-55 0l55 55l193 -194l202 202l-256 256l512 512l-256 256l310 310l1398 -1397l-55 -55l-1217 1218l-202 -202l256 -256l-512 -512l256 -256l-310 -310zM-55 1536l55 55l193 -194l256 256l180 -180l-310 -310z M395 -449l310 310l374 -373l-55 -55l-193 194l-256 -256zM651 319l310 310l1142 -1141l-55 -55l-961 962l-202 -202l706 -705l-55 -55zM969 1536l55 55l1079 -1079l-55 -55zM1481 1536l55 55l567 -567l-55 -55z" />
<glyph unicode="E" horiz-adv-x="512" d="M-117 63l566 566l180 -180l-512 -512l450 -449l-55 -55zM-117 575l566 566l180 -180l-566 -566zM-117 1087l566 566l180 -180l-566 -566z" />
<glyph unicode="F" d="M-117 63l310 310l436 -436l-566 -566l-180 180l512 512l-76 76l-256 -256zM-117 575l310 310l948 -948l-566 -566l-180 180l512 512l-588 588l-256 -256zM-117 1087l310 310l1536 -1536l256 256l180 -180l-310 -310l-1536 1536l-256 -256zM457 1536l55 55l193 -194 l256 256l180 -180l-310 -310zM907 -449l310 310l374 -373l-55 -55l-193 194l-256 -256zM907 1087l566 566l180 -180l-512 -512l588 -588l256 256l180 -180l-310 -310zM1419 1087l566 566l180 -180l-512 -512l76 -76l256 256l180 -180l-310 -310z" />
<glyph unicode="G" d="M-117 1087l566 566l180 -180l-566 -566zM-55 0l55 55l567 -567l-55 -55zM-55 512l55 55l1079 -1079l-55 -55zM139 831l822 822l180 -180l-768 -768l76 -76l768 768l692 -692l-566 -566l-180 180l512 512l-332 332l-768 -768zM651 319l566 566l180 -180l-512 -512 l332 -332l768 768l180 -180l-822 -822zM1419 -449l566 566l180 -180l-566 -566zM1481 1536l55 55l567 -567l-55 -55z" />
<glyph unicode="H" horiz-adv-x="1024" d="M-117 63l310 310l436 -436l-566 -566l-180 180l512 512l-76 76l-256 -256zM-117 575l512 512l-76 76l-256 -256l-180 180l310 310l436 -436l-566 -566zM395 -449l566 566l180 -180l-566 -566zM395 575l566 566l180 -180l-512 -512l76 -76l256 256l180 -180l-310 -310z M457 1536l55 55l193 -194l256 256l180 -180l-310 -310z" />
<glyph unicode="I" horiz-adv-x="512" d="M-117 63l566 566l180 -180l-566 -566zM-117 -449l566 566l180 -180l-566 -566zM-117 575l512 512l-450 449l55 55l629 -630l-566 -566z" />
<glyph unicode="J" d="M-117 63l310 310l886 -885l-55 -55l-705 706l-202 -202l450 -449l-55 -55zM-117 575l310 310l1398 -1397l-55 -55l-1217 1218l-256 -256zM-117 1087l310 310l1536 -1536l256 256l180 -180l-310 -310l-1536 1536l-256 -256zM457 1536l55 55l1217 -1218l256 256l180 -180 l-310 -310zM969 1536l55 55l705 -706l202 202l-450 449l55 55l629 -630l-310 -310z" />
<glyph unicode="K" d="M-117 63l310 310l256 -256l202 202l-332 332l-256 -256l-180 180l310 310l692 -692l-310 -310l-256 256l-256 -256zM-117 -449l310 310l180 -180l-310 -310zM-117 1087l566 566l180 -180l-566 -566zM395 -449l566 566l436 -436l-310 -310l-180 180l256 256l-76 76 l-512 -512zM395 1087l566 566l180 -180l-512 -512l844 -844l512 512l180 -180l-566 -566zM907 1087l310 310l256 -256l512 512l180 -180l-566 -566l-256 256l-202 -202l332 -332l512 512l180 -180l-566 -566zM1419 -449l566 566l180 -180l-566 -566z" />
<glyph unicode="L" horiz-adv-x="1024" d="M-117 63l256 256l-256 256l1078 1078l180 -180l-1024 -1024l256 -256l-310 -310zM-117 -449l768 768l-256 256l566 566l180 -180l-512 -512l256 -256l-822 -822zM-117 1087l566 566l180 -180l-566 -566zM395 -449l566 566l180 -180l-566 -566z" />
<glyph unicode="M" d="M-117 63l256 256l-194 193l55 55l373 -374l-256 -256l76 -76l256 256l436 -436l-310 -310l-180 180l256 256l-76 76l-256 -256zM-117 1087l310 310l436 -436l-256 -256l76 -76l256 256l256 -256l512 512l436 -436l-256 -256l76 -76l256 256l180 -180l-310 -310l-436 436 l256 256l-76 76l-768 -768l-180 180l256 256l-76 76l-256 -256l-436 436l256 256l-76 76l-256 -256zM457 1536l55 55l193 -194l256 256l180 -180l-310 -310zM907 63l310 310l436 -436l-566 -566l-180 180l512 512l-76 76l-256 -256zM907 1087l566 566l180 -180l-566 -566z M1419 -449l310 310l374 -373l-55 -55l-193 194l-256 -256zM1675 1343l310 310l180 -180l-256 -256l194 -193l-55 -55z" />
<glyph unicode="N" d="M-117 63l768 768l-706 705l55 55l449 -450l202 202l-194 193l55 55l373 -374l-256 -256l332 -332l256 256l374 -373l-55 -55l-193 194l-256 -256l-63 64v-2l-193 194l-768 -768zM-117 575l256 256l-194 193l55 55l373 -374l-310 -310zM139 -193l310 310l512 -512l256 256 l180 -180l-310 -310l-512 512l-256 -256zM713 256l55 55l193 -194l256 256l256 -256l512 512l180 -180l-512 -512l450 -449l-55 -55l-193 194l-256 -256l-180 180l256 256l-332 332l-256 -256zM907 1087l256 256l-194 193l55 55l705 -706l256 256l180 -180l-310 -310 l-512 512l-256 -256zM1481 1536l55 55l311 -311l-55 -55z" />
<glyph unicode="O" horiz-adv-x="512" d="M-117 575l566 566l180 -180l-512 -512l450 -449l-55 -55zM-117 1087l566 566l180 -180l-566 -566zM-55 0l55 55l567 -567l-55 -55z" />
<glyph unicode="P" d="M-117 63l310 310l886 -885l-55 -55l-705 706l-256 -256zM-117 -449l310 310l374 -373l-55 -55l-193 194l-256 -256zM-117 575l310 310l1398 -1397l-55 -55l-1217 1218l-256 -256zM-117 1087l566 566l180 -180l-566 -566zM395 1087l566 566l180 -180l-512 -512l1474 -1473 l-55 -55zM907 1087l566 566l180 -180l-512 -512l962 -961l-55 -55zM1419 1087l310 310l374 -373l-55 -55l-193 194l-256 -256zM1737 768l55 55l311 -311l-55 -55z" />
<glyph unicode="Q" d="M-117 63l256 256l-194 193l55 55l373 -374l-256 -256l450 -449l-55 -55zM-55 1536l55 55l629 -630l-256 -256l1218 -1217l-55 -55l-705 706l-202 -202l450 -449l-55 -55l-629 630l256 256l-512 512l256 256zM457 1536l55 55l629 -630l-256 -256l76 -76l458 458l-450 449 l55 55l629 -630l-512 -512l194 -193l-55 -55l-629 630l256 256zM1419 63l256 256l-194 193l55 55l373 -374l-256 -256l450 -449l-55 -55zM1481 1536l55 55l629 -630l-256 -256l194 -193l-55 -55l-373 374l256 256z" />
<glyph unicode="R" horiz-adv-x="1024" d="M-117 63l1024 1024l-450 449l55 55l629 -630l-1078 -1078zM-117 -449l566 566l630 -629l-55 -55l-449 450l-512 -512zM-117 575l512 512l-450 449l55 55l629 -630l-566 -566zM651 319l310 310l180 -180l-256 -256l194 -193l-55 -55z" />
<glyph unicode="S" horiz-adv-x="1024" d="M-117 1087l566 566l630 -629l-55 -55l-449 450l-458 -458l450 -449l-55 -55zM-55 0l55 55l567 -567l-55 -55zM-55 512l55 55l449 -450l458 458l-450 449l55 55l629 -630l-512 -512l450 -449l-55 -55z" />
<glyph unicode="T" horiz-adv-x="1024" d="M-117 63l256 256l-194 193l55 55l373 -374l-310 -310zM-117 -449l1078 1078l180 -180l-1078 -1078zM-55 1024l55 55l449 -450l202 202l-706 705l55 55l885 -886l-310 -310zM395 -449l566 566l180 -180l-566 -566zM457 1536l55 55l567 -567l-55 -55z" />
<glyph unicode="U" horiz-adv-x="512" d="M-117 63l566 566l180 -180l-512 -512l450 -449l-55 -55zM-117 575l512 512l-450 449l55 55l629 -630l-566 -566z" />
<glyph unicode="V" d="M-117 63l256 256l-194 193l55 55l373 -374l-310 -310zM-117 -449l768 768l-706 705l55 55l193 -194l458 458l-194 193l55 55l449 -450l202 202l-194 193l55 55l373 -374l-310 -310l-256 256l-458 -458l706 -705l-55 -55l-193 194l-768 -768zM-55 1536l55 55l311 -311 l-55 -55zM395 -449l310 310l374 -373l-55 -55l-193 194l-256 -256zM713 768l55 55l193 -194l714 714l-194 193l55 55l567 -567l-55 -55l-193 194l-714 -714l962 -961l-55 -55zM1225 -256l55 55l311 -311l-55 -55zM1419 575l310 310l374 -373l-55 -55l-193 194l-202 -202 l450 -449l-55 -55z" />
<glyph unicode="W" d="M-117 63l512 512l-450 449l55 55l629 -630l-512 -512l332 -332l256 256l256 -256l256 256l180 -180l-310 -310l-256 256l-256 -256zM-55 1536l55 55l1473 -1474l202 202l-512 512l822 822l180 -180l-768 -768l332 -332l256 256l180 -180l-566 -566l-256 256l-256 -256 l-256 256l-256 -256l-180 180l310 310l256 -256l202 202zM457 1536l55 55l449 -450l512 512l180 -180l-566 -566zM1419 -449l566 566l180 -180l-566 -566zM1675 831l310 310l180 -180l-310 -310z" />
<glyph unicode="X" d="M-117 63l310 310l180 -180l-256 -256l194 -193l-55 -55zM-117 1087l256 256l-194 193l55 55l193 -194l256 256l180 -180l-256 -256l76 -76l256 256l630 -629l-55 -55l-193 194l-458 -458l194 -193l-55 -55l-567 567l55 55l193 -194l458 458l-76 76l-256 -256l-256 256 l-256 -256zM395 -449l256 256l-194 193l55 55l193 -194l458 458l-194 193l55 55l193 -194l256 256l180 -180l-256 -256l256 -256l-256 -256l76 -76l458 458l-194 193l55 55l373 -374l-566 -566l-436 436l256 256l-76 76l-458 -458l194 -193l-55 -55l-193 194l-256 -256z M1163 1343l310 310l374 -373l-55 -55l-193 194l-202 -202l332 -332l256 256l180 -180l-256 -256l194 -193l-55 -55z" />
<glyph unicode="Y" horiz-adv-x="512" d="M-117 63l256 256l-194 193l55 55l373 -374l-310 -310zM-117 -449l566 566l180 -180l-566 -566zM-117 1087l566 566l180 -180l-566 -566zM139 831l310 310l180 -180l-256 -256l194 -193l-55 -55z" />
<glyph unicode="Z" d="M-117 -449l256 256l256 256l-450 449l55 55l193 -194l714 714l-194 193l55 55l373 -374l-768 -768l256 -256l-566 -566zM139 831l256 256l-256 256l310 310l180 -180l-256 -256l256 -256l-310 -310zM395 -449l512 512l-256 256l768 768l-450 449l55 55l193 -194l256 256 l180 -180l-256 -256l256 -256l-768 -768l256 -256l-256 -256l194 -193l-55 -55l-193 194l-256 -256zM1163 -193l256 256l-256 256l768 768l-194 193l55 55l373 -374l-256 -256l194 -193l-55 -55l-193 194l-458 -458l256 -256l-310 -310zM1419 -449l512 512l-194 193l55 55 l373 -374l-256 -256l194 -193l-55 -55l-193 194l-256 -256z" />
<glyph unicode="[" horiz-adv-x="512" d="M-117 63l512 512l-194 193l55 55l373 -374l-566 -566zM-117 1087l566 566l180 -180l-566 -566zM201 -256l55 55l311 -311l-55 -55z" />
<glyph unicode="\" horiz-adv-x="1024" d="M-55 0l55 55l567 -567l-55 -55zM-55 512l55 55l193 -194l458 458l-706 705l55 55l1079 -1079l-55 -55l-193 194l-458 -458l706 -705l-55 -55zM-55 1024l55 55l311 -311l-55 -55zM457 1536l55 55l567 -567l-55 -55zM713 256l55 55l311 -311l-55 -55z" />
<glyph unicode="]" horiz-adv-x="512" d="M-117 -449l566 566l180 -180l-566 -566zM-117 575l566 566l180 -180l-512 -512l194 -193l-55 -55zM-55 1536l55 55l311 -311l-55 -55z" />
<glyph unicode="^" d="M-117 -449l256 256l-194 193l55 55l193 -194l768 768l118 -117l1024 -1024l-55 -55l-961 962l-1024 -1024zM-117 575l256 256l-194 193l55 55l193 -194l768 768l886 -885l-55 -55l-705 706l-1024 -1024zM139 319l822 822l768 -768l256 256l180 -180l-256 -256l194 -193 l-55 -55l-961 962l-768 -768zM139 1343l310 310l180 -180l-310 -310zM395 -449l566 566l630 -629l-55 -55l-449 450l-512 -512zM1481 1536l55 55l567 -567l-55 -55z" />
<glyph unicode="_" horiz-adv-x="512" d="M-117 -449l512 512l-256 256l310 310l180 -180l-256 -256l256 -256l-566 -566zM-117 575l512 512l-256 256l310 310l180 -180l-256 -256l256 -256l-566 -566z" />
<glyph unicode="`" horiz-adv-x="512" d="M-55 0l55 55l567 -567l-55 -55zM-55 512l55 55l567 -567l-55 -55zM-55 1024l55 55l193 -194l256 256l180 -180l-310 -310zM-55 1536l55 55l193 -194l256 256l180 -180l-310 -310z" />
<glyph unicode="a" horiz-adv-x="512" d="M-55 0l55 55l567 -567l-55 -55zM-55 512l55 55l567 -567l-55 -55zM-55 1024l55 55l567 -567l-55 -55zM-55 1536l55 55l567 -567l-55 -55z" />
<glyph unicode="b" d="M-117 63l566 566l1024 -1024l458 458l-706 705l55 55l885 -886l-566 -566l-1024 1024l-512 -512zM-117 -449l566 566l630 -629l-55 -55l-449 450l-512 -512zM-117 575l256 256l-194 193l55 55l373 -374l-310 -310zM-55 1536l55 55l705 -706l768 768l180 -180l-768 -768 l706 -705l-55 -55zM457 1536l55 55l193 -194l256 256l180 -180l-310 -310zM1419 1087l566 566l180 -180l-512 -512l450 -449l-55 -55z" />
<glyph unicode="c" d="M-117 575l256 256l-194 193l55 55l373 -374l-310 -310zM-55 0l55 55l567 -567l-55 -55zM-55 1536l55 55l885 -886l-512 -512l332 -332l256 256l436 -436l-310 -310l-180 180l256 256l-76 76l-256 -256l-692 692l512 512zM651 319l566 566l180 -180l-256 -256l588 -588 l256 256l180 -180l-566 -566l-180 180l256 256l-588 588l-256 -256zM651 1343l310 310l180 -180l-256 -256l76 -76l256 256l692 -692l-256 -256l76 -76l256 256l180 -180l-310 -310l-436 436l256 256l-332 332l-256 -256zM1481 1536l55 55l567 -567l-55 -55z" />
<glyph unicode="d" d="M-117 -449l256 256l-194 193l55 55l373 -374l-310 -310zM-117 575l1078 1078l180 -180l-1078 -1078zM-117 1087l566 566l180 -180l-566 -566zM139 319l1334 1334l180 -180l-1280 -1280l76 -76l256 256l512 -512l256 256l436 -436l-310 -310l-180 180l256 256l-76 76 l-256 -256l-512 512l-256 -256zM395 -449l310 310l63 -64v2l311 -311l-55 -55l-193 194l-256 -256zM907 575l1078 1078l180 -180q-256 -258 -511 -512t-513 -512l76 -76l768 768l180 -180l-822 -822zM1675 319l310 310l180 -180l-256 -256l194 -193l-55 -55z" />
<glyph unicode="e" horiz-adv-x="512" d="M-117 -449l512 512l-450 449l55 55l629 -630l-566 -566zM-55 1024l55 55l567 -567l-55 -55zM-55 1536l55 55l567 -567l-55 -55z" />
<glyph unicode="f" d="M-117 63l256 256l-194 193l55 55l373 -374l-310 -310zM-55 1024l55 55l449 -450l714 714l-194 193l55 55l373 -374l-822 -822zM-55 1536l55 55l449 -450l202 202l-194 193l55 55l373 -374l-310 -310zM139 -193l1536 1536l-194 193l55 55l373 -374l-1536 -1536l194 -193 l-55 -55zM651 -193l822 822l630 -629l-55 -55l-449 450l-714 -714l194 -193l-55 -55zM1163 -193l310 310l63 -64v2l567 -567l-55 -55l-449 450l-202 -202l194 -193l-55 -55zM1675 831l310 310l180 -180l-256 -256l194 -193l-55 -55z" />
<glyph unicode="g" d="M-117 575l1078 1078l180 -180l-1078 -1078zM-117 1087l566 566l180 -180l-566 -566zM-55 0l55 55l567 -567l-55 -55zM139 319l566 566l630 -629l-55 -55l-449 450l-458 -458l706 -705l-55 -55zM713 256l55 55l449 -450l458 458l-768 768l310 310l886 -885l-55 -55 l-705 706l-202 -202l768 -768l-566 -566zM1419 -449l566 566l180 -180l-566 -566zM1481 1536l55 55l567 -567l-55 -55z" />
<glyph unicode="h" horiz-adv-x="1024" d="M-55 0l55 55l193 -194l202 202l-450 449l55 55l629 -630l-310 -310zM-55 1024l55 55l193 -194l202 202l-450 449l55 55l629 -630l-310 -310zM395 -449l310 310l374 -373l-55 -55l-193 194l-256 -256zM395 575l310 310l374 -373l-55 -55l-193 194l-202 -202l450 -449 l-55 -55zM457 1536l55 55l567 -567l-55 -55z" />
<glyph unicode="i" horiz-adv-x="512" d="M-117 1087l566 566l180 -180l-512 -512l450 -449l-55 -55zM-55 0l55 55l567 -567l-55 -55zM-55 512l55 55l567 -567l-55 -55z" />
<glyph unicode="j" d="M-117 63l1280 1280l-194 193l55 55l373 -374l-1334 -1334zM-117 575l768 768l-76 76l-512 -512l-180 180l566 566l436 -436l-822 -822zM139 -193l1536 1536l-194 193l55 55l373 -374l-1536 -1536l194 -193l-55 -55zM651 -193l1334 1334l180 -180l-1280 -1280l194 -193 l-55 -55zM1163 -193l822 822l180 -180l-768 -768l76 -76l512 512l180 -180l-566 -566z" />
<glyph unicode="k" d="M-55 0l55 55l567 -567l-55 -55zM-55 512l55 55l193 -194l202 202l-450 449l55 55l629 -630l-310 -310zM-55 1536l55 55l311 -311l-55 -55zM395 63l1078 1078l630 -629l-55 -55l-449 450l-970 -970l450 -449l-55 -55zM395 1087l256 256l-194 193l55 55l373 -374l-256 -256 l76 -76l458 458l-194 193l55 55l373 -374l-566 -566zM907 63l566 566l436 -436l-256 -256l450 -449l-55 -55l-629 630l256 256l-76 76l-458 -458l450 -449l-55 -55zM1481 1536l55 55l567 -567l-55 -55z" />
<glyph unicode="l" horiz-adv-x="1024" d="M-117 575l256 256l-194 193l55 55l373 -374l-256 -256l962 -961l-55 -55zM-55 0l55 55l567 -567l-55 -55zM-55 1536l55 55l885 -886l-256 -256l450 -449l-55 -55l-629 630l256 256zM457 1536l55 55l567 -567l-55 -55z" />
<glyph unicode="m" d="M-117 -449l256 256l-194 193l55 55l373 -374l-310 -310zM-55 512l55 55l449 -450l202 202l-194 193l55 55l373 -374l-310 -310zM-55 1024l55 55l193 -194l202 202l-256 256l310 310l256 -256l256 256l180 -180l-310 -310l-256 256l-202 -202l256 -256l-310 -310z M651 -193l310 310l256 -256l202 202l-706 705l55 55l193 -194l202 202l-194 193l311 311l193 -194l202 202l-194 193l55 55l373 -374l-310 -310l-319 320l-201 -203l318 -319l-256 -256l512 -512l-310 -310l-256 256l-202 -202l194 -193l-55 -55zM1419 -449l310 310l63 -64 v2l311 -311l-55 -55l-193 194l-256 -256zM1481 512l55 55l567 -567l-55 -55zM1675 831l310 310l180 -180l-256 -256l194 -193l-55 -55z" />
<glyph unicode="n" d="M-117 63l310 310l256 -256l458 458l-256 256l310 310l180 -180l-256 -256l256 -256l-256 -256l706 -705l-55 -55l-705 706l-768 -768l-180 180l512 512l-76 76l-256 -256zM-117 575l768 768l-194 193l55 55l373 -374l-512 -512l194 -193l-55 -55l-193 194l-256 -256z M-117 1087l310 310l180 -180l-310 -310zM395 -449l310 310l63 -64v2l311 -311l-55 -55l-193 194l-256 -256zM969 1536l55 55l449 -450l512 512l180 -180l-256 -256l194 -193l-55 -55l-193 194l-458 -458l256 -256l-310 -310l-180 180l256 256l-256 256l256 256zM1419 63 l512 512l-194 193l55 55l373 -374l-512 -512l194 -193l-55 -55z" />
<glyph unicode="o" horiz-adv-x="512" d="M-117 63l512 512l-450 449l55 55l629 -630l-566 -566zM-117 -449l566 566l180 -180l-566 -566zM-55 1536l55 55l567 -567l-55 -55z" />
<glyph unicode="p" d="M-117 63l1280 1280l-194 193l55 55l373 -374l-1334 -1334zM-117 -449l1590 1590l630 -629l-55 -55l-449 450l-1536 -1536zM-117 575l768 768l-194 193l55 55l373 -374l-822 -822zM-117 1087l256 256l-194 193l55 55l373 -374l-310 -310zM395 -449l1078 1078l630 -629 l-55 -55l-449 450l-1024 -1024zM907 -449l310 310l180 -180l-310 -310zM1419 -449l256 256l-194 193l55 55l373 -374l-310 -310zM1481 1536l55 55l567 -567l-55 -55z" />
<glyph unicode="q" d="M-117 63l566 566l256 -256l202 202l-332 332l-512 -512l-180 180l566 566l512 -512l256 256l180 -180l-566 -566l-256 256l-512 -512zM-117 -449l566 566l256 -256l1280 1280l180 -180l-768 -768l76 -76l512 512l180 -180l-566 -566l-256 256l-512 -512l-256 256 l-512 -512zM-117 1087l566 566l256 -256l256 256l180 -180l-310 -310l-256 256l-512 -512zM907 -449l310 310l256 -256l512 512l180 -180l-566 -566l-256 256l-256 -256zM907 1087l310 310l256 -256l512 512l180 -180l-566 -566l-256 256l-256 -256z" />
<glyph unicode="r" horiz-adv-x="1024" d="M-117 -449l512 512l-450 449l55 55l629 -630l-566 -566zM-55 1024l55 55l1141 -1142l-566 -566l-180 180l512 512zM-55 1536l55 55l449 -450l512 512l180 -180l-566 -566zM651 831l310 310l180 -180l-256 -256l194 -193l-55 -55z" />
<glyph unicode="s" horiz-adv-x="1024" d="M-117 63l566 566l180 -180l-512 -512l332 -332l512 512l180 -180l-566 -566zM-117 575l1078 1078l180 -180l-512 -512l512 -512l-566 -566l-180 180l512 512l-332 332l-512 -512zM-117 1087l566 566l180 -180l-566 -566z" />
<glyph unicode="t" horiz-adv-x="1024" d="M-117 63l566 566l436 -436l-822 -822l-180 180l768 768l-76 76l-512 -512zM-117 575l256 256l-194 193l55 55l373 -374l-310 -310zM-55 1536l55 55l1079 -1079l-55 -55zM395 -449l566 566l180 -180l-566 -566zM457 1536l55 55l567 -567l-55 -55z" />
<glyph unicode="u" horiz-adv-x="512" d="M-117 -449l256 256l256 256l-450 449l55 55l629 -630l-566 -566zM-117 1087l566 566l180 -180l-512 -512l450 -449l-55 -55z" />
<glyph unicode="v" d="M-117 63l512 512l-76 76l-256 -256l-180 180l310 310l436 -436l-256 -256l332 -332l768 768l180 -180l-256 -256l706 -705l-55 -55l-705 706l-768 -768l-180 180l256 256l-332 332l-256 -256zM-117 -449l310 310l180 -180l-310 -310zM-117 1087l566 566l180 -180 l-256 -256l588 -588l1024 1024l180 -180l-1334 -1334l-180 180l256 256l-588 588l-256 -256zM651 1343l310 310l180 -180l-256 -256l76 -76l512 512l180 -180l-566 -566zM907 -449l310 310l374 -373l-55 -55l-193 194l-256 -256zM1675 319l310 310l180 -180l-256 -256 l194 -193l-55 -55zM1675 831l310 310l180 -180l-310 -310z" />
<glyph unicode="w" d="M-117 63l256 256l256 256l-512 512l566 566l256 -256l256 256l374 -373l-55 -55l-193 194l-256 -256l-256 256l-458 -458l512 -512l-566 -566zM-117 -449l1280 1280l-76 76l-256 -256l-374 373l55 55l193 -194l256 256l256 -256l256 256l630 -629l-55 -55l-193 194 l-458 -458l706 -705l-55 -55l-885 886l512 512l-76 76l-1536 -1536zM395 -449l566 566l63 -64v2l567 -567l-55 -55l-449 450l-512 -512zM1481 1536l55 55l567 -567l-55 -55zM1737 256l55 55l311 -311l-55 -55z" />
<glyph unicode="x" d="M-117 -449l256 256l-194 193l55 55l193 -194l202 202l-256 256l566 566l180 -180l-256 -256l332 -332l256 256l180 -180l-566 -566l-180 180l256 256l-332 332l-202 -202l256 -256l-256 -256l194 -193l-55 -55l-193 194l-256 -256zM-117 1087l310 310l180 -180l-256 -256 l76 -76l458 458l-194 193l55 55l193 -194l256 256l180 -180l-822 -822zM907 575l256 256l-194 193l55 55l193 -194l256 256l256 -256l202 202l-332 332l-256 -256l-180 180l310 310l692 -692l-310 -310l-256 256l-202 -202l332 -332l256 256l180 -180l-256 -256l194 -193 l-55 -55l-193 194l-256 -256l-180 180l256 256l-332 332l-256 -256zM1225 -256l55 55l193 -194l256 256l180 -180l-310 -310z" />
<glyph unicode="y" horiz-adv-x="512" d="M-117 575l256 256l-194 193l55 55l373 -374l-310 -310zM-55 0l55 55l567 -567l-55 -55zM-55 1536l55 55l567 -567l-55 -55zM139 319l310 310l180 -180l-256 -256l194 -193l-55 -55z" />
<glyph unicode="z" d="M-117 63l256 256l-194 193l55 55l449 -450l768 768l256 -256l512 512l180 -180l-256 -256l194 -193l-55 -55l-193 194l-256 -256l-256 256l-768 -768l-256 256l-256 -256zM-117 1087l310 310l256 -256l256 256l180 -180l-310 -310l-256 256l-256 -256zM201 -256l55 55 l193 -194l768 768l256 -256l256 256l180 -180l-310 -310l-256 256l-458 -458l194 -193l-55 -55l-193 194l-256 -256zM201 768l55 55l193 -194l714 714l-194 193l55 55l449 -450l512 512l180 -180l-566 -566l-256 256l-768 -768zM1225 -256l55 55l193 -194l512 512l180 -180 l-256 -256l194 -193l-55 -55l-193 194l-256 -256z" />
<glyph unicode="{" horiz-adv-x="512" d="M-117 -449l310 310l374 -373l-55 -55l-193 194l-256 -256zM-117 575l566 566l180 -180l-512 -512l450 -449l-55 -55zM-55 1536l55 55l193 -194l256 256l180 -180l-310 -310z" />
<glyph unicode="|" horiz-adv-x="1024" d="M-117 575l310 310l512 -512l256 256l180 -180l-310 -310l-512 512l-256 -256zM-55 0l55 55l567 -567l-55 -55zM-55 1536l55 55l823 -823l-55 -55zM201 256l55 55l823 -823l-55 -55zM457 1536l55 55l567 -567l-55 -55z" />
<glyph unicode="}" horiz-adv-x="512" d="M-117 63l512 512l-450 449l55 55l629 -630l-566 -566zM-117 -449l310 310l374 -373l-55 -55l-193 194l-256 -256zM-55 1536l55 55l193 -194l256 256l180 -180l-310 -310z" />
<glyph unicode="~" d="M-117 63l256 256l-194 193l55 55l373 -374l-310 -310zM-55 1024l55 55l1079 -1079l-55 -55zM-55 1536l55 55l961 -962l256 256l180 -180l-310 -310zM139 -193l310 310l512 -512l458 458l-256 256l310 310l630 -629l-55 -55l-449 450l-202 -202l256 -256l-566 -566 l-512 512l-202 -202l194 -193l-55 -55zM457 1536l55 55l311 -311l-55 -55zM907 1087l566 566l180 -180l-566 -566zM1419 -449l310 310l374 -373l-55 -55l-193 194l-256 -256zM1419 1087l310 310l374 -373l-55 -55l-193 194l-202 -202l450 -449l-55 -55z" />
<glyph unicode="&#xa1;" horiz-adv-x="1024" d="M-117 63l1078 1078l180 -180l-1024 -1024l450 -449l-55 -55l-567 567h2zM-117 575l1078 1078l180 -180l-1078 -1078zM-117 1087l566 566l180 -180l-566 -566zM395 63l566 566l180 -180l-512 -512l450 -449l-55 -55l-567 567h2z" />
<glyph unicode="&#xa2;" d="M-117 63l512 512l-76 76l-256 -256l-180 180l310 310l436 -436l-512 -512l332 -332l768 768l886 -885l-55 -55l-449 450l-512 -512l-180 180l512 512l-76 76l-768 -768zM-55 1536l55 55l449 -450l512 512l180 -180l-512 -512l332 -332l512 512l180 -180l-1078 -1078 l-180 180l512 512zM907 1087l566 566l692 -692l-512 -512l76 -76l256 256l180 -180l-310 -310l-436 436l512 512l-332 332l-512 -512z" />
<glyph unicode="&#xa3;" horiz-adv-x="512" d="M-117 63l256 256l-194 193l55 55l567 -567h-2l64 -63l-566 -566l-180 180l512 512l-76 76l-256 -256zM-117 1087l566 566l180 -180l-512 -512l76 -76l256 256l180 -180l-256 -256l194 -193l-55 -55l-567 567h2z" />
<glyph unicode="&#xa5;" horiz-adv-x="512" d="M-117 575l512 512l-450 449l55 55l629 -630l-566 -566zM-55 0l55 55l567 -567l-55 -55zM139 319l310 310l180 -180l-256 -256l194 -193l-55 -55z" />
<glyph unicode="&#xa7;" horiz-adv-x="512" d="M-117 -449l566 566l180 -180l-566 -566zM-117 575l310 310l436 -436l-310 -310zM-117 1087l566 566l180 -180l-566 -566zM135 449l58 -58l184 184l-58 58z" />
<glyph unicode="&#xa8;" horiz-adv-x="512" d="M-117 575l512 512l-450 449l55 55l629 -630l-512 -512l450 -449l-55 -55zM-55 0l55 55l567 -567l-55 -55z" />
<glyph unicode="&#xa9;" d="M-55 0l55 55l567 -567l-55 -55zM-55 512l55 55l311 -311l-55 -55zM-55 1024l55 55l885 -886l-256 -256l450 -449l-55 -55l-629 630l256 256zM-55 1536l55 55l1217 -1218l256 256l630 -629l-55 -55l-449 450l-458 -458l450 -449l-55 -55l-629 630l256 256zM457 1536l55 55 l705 -706l256 256l630 -629l-55 -55l-449 450l-256 -256zM969 1536l55 55l311 -311l-55 -55zM1481 0l55 55l567 -567l-55 -55zM1481 1536l55 55l567 -567l-55 -55z" />
<glyph unicode="&#xaa;" horiz-adv-x="1024" d="M-117 63l256 256l-256 256l1078 1078l180 -180l-1024 -1024l76 -76l256 256l180 -180l-566 -566zM-117 -449l1024 1024l-194 193l55 55l373 -374l-1078 -1078zM-117 1087l256 256l-194 193l55 55l193 -194l256 256l180 -180l-566 -566zM713 -256l55 55l311 -311l-55 -55z " />
<glyph unicode="&#xab;" horiz-adv-x="1024" d="M-117 575l1078 1078l180 -180l-1024 -1024l194 -193l-55 -55zM-117 1087l566 566l180 -180l-566 -566zM-55 0l55 55l193 -194l458 458l-256 256l566 566l180 -180l-512 -512l450 -449l-55 -55l-193 194l-458 -458l194 -193l-55 -55zM713 -256l55 55l311 -311l-55 -55z " />
<glyph unicode="&#xac;" horiz-adv-x="1024" d="M-117 63l768 768l-512 512l310 310l180 -180l-256 -256l332 -332l256 256l180 -180l-768 -768l512 -512l-310 -310l-180 180l256 256l-332 332l-256 -256zM-117 -449l310 310l180 -180l-310 -310zM-117 575l256 256l-194 193l55 55l373 -374l-310 -310zM651 319l310 310 l180 -180l-256 -256l194 -193l-55 -55zM651 1343l310 310l180 -180l-310 -310z" />
<glyph unicode="&#xae;" horiz-adv-x="1024" d="M-55 0l55 55l193 -194l458 458l-706 705l55 55l885 -886l-256 -256l76 -76l256 256l180 -180l-566 -566l-180 180l256 256l-76 76l-256 -256zM-55 512l55 55l311 -311l-55 -55zM-55 1536l55 55l193 -194l256 256l180 -180l-310 -310zM395 1087l566 566l180 -180 l-566 -566zM651 831l310 310l180 -180l-256 -256l194 -193l-55 -55z" />
<glyph unicode="&#xaf;" horiz-adv-x="512" d="M-55 512l55 55l629 -630l-256 -256l194 -193l-55 -55l-373 374l256 256zM-55 1536l55 55l629 -630l-256 -256l194 -193l-55 -55l-373 374l256 256z" />
<glyph unicode="&#xb0;" horiz-adv-x="1024" d="M-117 575l566 566l180 -180l-512 -512l194 -193l-55 -55zM-117 1087l566 566l630 -629l-55 -55l-449 450l-512 -512zM-55 0l55 55l449 -450l512 512l180 -180l-566 -566zM395 63l512 512l-194 193l55 55l373 -374l-566 -566z" />
<glyph unicode="&#xb1;" horiz-adv-x="512" d="M-117 63l566 566l180 -180l-256 -256l194 -193l-55 -55l-193 194l-256 -256zM-117 -449l310 310l374 -373l-55 -55l-193 194l-256 -256zM-117 575l256 256l-194 193l55 55l193 -194l256 256l180 -180l-566 -566zM-55 1536l55 55l193 -194l256 256l180 -180l-310 -310z " />
<glyph unicode="&#xb4;" horiz-adv-x="512" d="M-117 63l310 310l374 -373l-55 -55l-193 194l-256 -256zM-117 -449l310 310l374 -373l-55 -55l-193 194l-256 -256zM-55 1024l55 55l567 -567l-55 -55zM-55 1536l55 55l567 -567l-55 -55z" />
<glyph unicode="&#xb5;" d="M-117 63l256 256l-194 193l55 55l373 -374l-310 -310zM-117 -449l768 768l-706 705l55 55l885 -886l-822 -822zM-55 1536l55 55l1217 -1218l714 714l-450 449l55 55l629 -630l-1590 -1590l-180 180l768 768zM457 1536l55 55l823 -823l-55 -55zM907 -449l1078 1078 l180 -180l-1078 -1078zM969 1536l55 55l567 -567l-55 -55zM1419 -449l566 566l180 -180l-566 -566z" />
<glyph unicode="&#xb6;" d="M-117 63l256 256l-194 193l55 55l373 -374l-310 -310zM-117 -449l768 768l-256 256l566 566l180 -180l-256 -256l588 -588l202 202l-256 256l566 566l180 -180l-512 -512l256 -256l-566 -566l-180 180l256 256l-588 588l-202 -202l256 -256l-822 -822zM-117 1087l566 566 l180 -180l-512 -512l76 -76l768 768l256 -256l256 256l180 -180l-310 -310l-256 256l-768 -768zM395 -449l566 566l180 -180l-566 -566zM1163 831l822 822l180 -180l-822 -822zM1419 -449l566 566l180 -180l-566 -566z" />
<glyph unicode="&#xb7;" horiz-adv-x="1024" d="M-117 63l310 310l436 -436l-566 -566l-180 180l512 512l-76 76l-256 -256zM-117 575l310 310l512 -512l256 256l180 -180l-310 -310l-512 512l-256 -256zM-117 1087l566 566l180 -180l-566 -566zM395 -449l566 566l180 -180l-566 -566zM395 1087l566 566l180 -180 l-512 -512l76 -76l256 256l180 -180l-310 -310z" />
<glyph unicode="&#xb8;" d="M-117 63l256 256l-194 193l55 55l193 -194l458 458l-706 705l55 55l705 -706l458 458l-194 193l55 55l193 -194l256 256l630 -629l-55 -55l-449 450l-202 -202l450 -449l-55 -55l-449 450l-202 -202l194 -193l-55 -55l-193 194l-458 -458l194 -193l-55 -55l-193 194 l-202 -202l450 -449l-55 -55l-449 450l-202 -202l450 -449l-55 -55zM-55 1024l55 55l311 -311l-55 -55zM457 1536l55 55l311 -311l-55 -55zM969 0l55 55l449 -450l202 202l-706 705l55 55l705 -706l202 202l-450 449l55 55l629 -630l-566 -566z" />
<glyph unicode="&#xba;" horiz-adv-x="1024" d="M-117 -449l1024 1024l-194 193l55 55l373 -374l-1078 -1078zM-117 575l1078 1078l180 -180l-1024 -1024l194 -193l-55 -55zM-55 1536l55 55l311 -311l-55 -55zM713 -256l55 55l311 -311l-55 -55z" />
<glyph unicode="&#xbb;" horiz-adv-x="1024" d="M-117 63l512 512l-450 449l55 55l193 -194l458 458l-194 193l55 55l567 -567l-55 -55l-193 194l-458 -458l256 -256l-566 -566zM-117 -449l1024 1024l-194 193l55 55l373 -374l-1078 -1078zM-55 1536l55 55l311 -311l-55 -55zM395 -449l566 566l180 -180l-566 -566z" />
<glyph unicode="&#xbf;" horiz-adv-x="1024" d="M-117 63l768 768l-332 332l-256 -256l-180 180l566 566l180 -180l-256 -256l332 -332l256 256l180 -180l-1024 -1024l450 -449l-55 -55l-567 567h2zM-117 575l310 310l180 -180l-310 -310zM395 63l566 566l180 -180l-512 -512l450 -449l-55 -55l-567 567h2zM651 1343 l310 310l180 -180l-310 -310z" />
<glyph unicode="&#xc0;" d="M-117 -449l2102 2102l180 -180l-2102 -2102zM395 -449l310 310l374 -373l-55 -55l-193 194l-256 -256zM907 63l1078 1078l180 -180l-1024 -1024l450 -449l-55 -55zM1481 0l55 55l567 -567l-55 -55zM1675 319l310 310l180 -180l-256 -256l194 -193l-55 -55z" />
<glyph unicode="&#xc1;" horiz-adv-x="512" d="M-117 63l566 566l180 -180l-512 -512l450 -449l-55 -55zM-117 575l256 256l-194 193l55 55l373 -374l-310 -310zM-55 1536l55 55l567 -567l-55 -55z" />
<glyph unicode="&#xc2;" d="M-117 63l768 768l-706 705l55 55l885 -886l-822 -822zM-117 -449l1280 1280l-706 705l55 55l1653 -1654l-566 -566l-180 180l512 512l-588 588l-1280 -1280zM-117 575l256 256l-194 193l55 55l373 -374l-310 -310zM395 -449l822 822l180 -180l-822 -822zM907 -449 l566 566l180 -180l-566 -566zM969 1536l55 55l1079 -1079l-55 -55zM1481 1536l55 55l567 -567l-55 -55z" />
<glyph unicode="&#xc3;" horiz-adv-x="512" d="M-117 63l566 566l180 -180l-512 -512l76 -76l256 256l180 -180l-566 -566l-180 180l256 256zM-117 575l512 512l-76 76l-256 -256l-180 180l566 566l180 -180l-256 -256l256 -256l-566 -566z" />
<glyph unicode="&#xc4;" d="M-117 -449l822 822l692 -692l-310 -310l-180 180l256 256l-332 332l-768 -768zM395 -449l310 310l180 -180l-310 -310zM907 575l1078 1078l180 -180l-1024 -1024l332 -332l512 512l180 -180l-566 -566zM1419 -449l566 566l180 -180l-566 -566zM1419 575l566 566l180 -180 l-566 -566z" />
<glyph unicode="&#xc5;" horiz-adv-x="512" d="M-117 63l310 310l374 -373l-55 -55l-193 194l-256 -256zM-117 -449l310 310l374 -373l-55 -55l-193 194l-256 -256zM-117 575l310 310l374 -373l-55 -55l-193 194l-256 -256zM-117 1087l310 310l374 -373l-55 -55l-193 194l-256 -256z" />
<glyph unicode="&#xc6;" d="M-117 63l822 822l512 -512l768 768l180 -180l-768 -768l706 -705l-55 -55l-1217 1218l-768 -768zM-117 -449l822 822l886 -885l-55 -55l-705 706l-768 -768zM-117 575l1078 1078l180 -180l-1078 -1078zM-117 1087l566 566l180 -180l-566 -566zM395 -449l310 310l63 -64v2 l311 -311l-55 -55l-193 194l-256 -256zM907 1087l566 566l180 -180l-566 -566zM1163 831l822 822l180 -180l-822 -822zM1675 319l310 310l180 -180l-310 -310z" />
<glyph unicode="&#xc7;" d="M-117 575l768 768l-194 193l55 55l373 -374l-768 -768l844 -844l1024 1024l180 -180l-1078 -1078zM-117 1087l310 310l180 -180l-310 -310zM-55 0l55 55l567 -567l-55 -55zM395 575l1078 1078l180 -180l-1024 -1024l332 -332l714 714l-76 76l-512 -512l-180 180 l1078 1078l180 -180l-512 -512l76 -76l256 256l180 -180l-1078 -1078zM1419 -449l566 566l180 -180l-566 -566z" />
<glyph unicode="&#xc8;" d="M-55 1536l55 55l2103 -2103l-55 -55zM457 1536l55 55l449 -450l512 512l180 -180l-566 -566zM1163 831l822 822l180 -180l-768 -768l706 -705l-55 -55zM1675 831l310 310l180 -180l-256 -256l194 -193l-55 -55z" />
<glyph unicode="&#xcb;" d="M-55 1536l55 55l705 -706l768 768l180 -180l-822 -822zM457 1536l55 55l193 -194l256 256l180 -180l-310 -310zM907 575l1078 1078l180 -180l-1078 -1078zM1163 319l822 822l180 -180l-768 -768l706 -705l-55 -55zM1675 319l310 310l180 -180l-256 -256l194 -193l-55 -55 z" />
<glyph unicode="&#xcd;" horiz-adv-x="1024" d="M-117 63l768 768l-194 193l55 55l373 -374l-256 -256l450 -449l-55 -55l-449 450l-458 -458l256 -256l-310 -310l-180 180l256 256zM-117 575l256 256l-256 256l566 566l630 -629l-55 -55l-449 450l-458 -458l256 -256l-310 -310zM395 -449l256 256l-194 193l55 55 l373 -374l-310 -310z" />
<glyph unicode="&#xce;" d="M-117 -449l512 512l-450 449l55 55l629 -630l-566 -566zM-117 1087l566 566l180 -180l-512 -512l76 -76l768 768l180 -180l-822 -822zM395 -449l512 512l-512 512l822 822l886 -885l-55 -55l-705 706l-714 -714l962 -961l-55 -55l-449 450l-512 -512zM907 575l310 310 l886 -885l-55 -55l-705 706l-202 -202l962 -961l-55 -55zM1481 1536l55 55l567 -567l-55 -55z" />
<glyph unicode="&#xcf;" d="M-117 -449l256 256l-194 193l55 55l193 -194l256 256l180 -180l-256 -256l194 -193l-55 -55l-193 194l-256 -256zM-117 575l256 256l-256 256l310 310l180 -180l-256 -256l256 -256l-310 -310zM139 319l566 566l180 -180l-256 -256l76 -76l458 458l-332 332l-256 -256 l-180 180l256 256l-194 193l55 55l193 -194l256 256l180 -180l-256 -256l332 -332l256 256l180 -180l-256 -256l332 -332l256 256l180 -180l-566 -566l-180 180l256 256l-332 332l-458 -458l76 -76l256 256l180 -180l-256 -256l194 -193l-55 -55l-193 194l-256 -256 l-180 180l256 256l-332 332l-256 -256zM1163 1343l310 310l692 -692l-310 -310l-180 180l256 256l-332 332l-256 -256zM1419 -449l566 566l180 -180l-566 -566z" />
<glyph unicode="&#xd1;" d="M-55 0l55 55l193 -194l202 202l-450 449l55 55l629 -630l-310 -310zM-55 1024l55 55l449 -450l202 202l-256 256l566 566l512 -512l202 202l-194 193l55 55l373 -374l-310 -310l-512 512l-458 -458l256 -256l-310 -310zM-55 1536l55 55l193 -194l256 256l180 -180 l-310 -310zM395 -449l566 566l180 -180l-566 -566zM651 319l310 310l1142 -1141l-55 -55l-961 962l-256 -256zM969 1024l55 55l1079 -1079l-55 -55zM1225 -256l55 55l311 -311l-55 -55zM1675 831l310 310l180 -180l-256 -256l194 -193l-55 -55z" />
<glyph unicode="&#xd2;" horiz-adv-x="1024" d="M-117 63l256 256l-194 193l55 55l373 -374l-310 -310zM-55 1024l55 55l193 -194l458 458l-194 193l55 55l373 -374l-512 -512l706 -705l-55 -55l-193 194l-458 -458l194 -193l-55 -55l-373 374l512 512zM-55 1536l55 55l311 -311l-55 -55zM651 831l310 310l180 -180 l-256 -256l194 -193l-55 -55zM713 -256l55 55l311 -311l-55 -55z" />
<glyph unicode="&#xd3;" horiz-adv-x="1024" d="M-117 63l566 566l256 -256l256 256l180 -180l-310 -310l-256 256l-458 -458l450 -449l-55 -55zM-117 575l1078 1078l180 -180l-1078 -1078zM-117 1087l566 566l180 -180l-566 -566zM457 0l55 55l567 -567l-55 -55zM651 831l310 310l180 -180l-310 -310z" />
<glyph unicode="&#xd4;" d="M-117 63l566 566l692 -692l-566 -566l-180 180l512 512l-332 332l-512 -512zM-117 -449l566 566l180 -180l-566 -566zM-117 575l310 310l180 -180l-310 -310zM-117 1087l566 566l180 -180l-256 -256l1730 -1729l-55 -55l-1729 1730l-256 -256zM651 1343l310 310l180 -180 l-310 -310zM907 -449l310 310l63 -64v2l311 -311l-55 -55l-193 194l-256 -256zM907 1087l566 566l180 -180l-512 -512l332 -332l512 512l180 -180l-566 -566zM1419 1087l566 566l180 -180l-566 -566zM1675 319l310 310l180 -180l-256 -256l194 -193l-55 -55z" />
<glyph unicode="&#xd5;" horiz-adv-x="512" d="M-117 63l256 256l-194 193l55 55l567 -567l-55 -55l-193 194l-256 -256zM-117 1087l256 256l-194 193l55 55l567 -567l-55 -55l-193 194l-256 -256zM201 -256l55 55l311 -311l-55 -55zM201 768l55 55l311 -311l-55 -55z" />
<glyph unicode="&#xd7;" horiz-adv-x="512" d="M-117 -449l256 256l-194 193l55 55l373 -374l-310 -310zM-117 575l256 256l-194 193l55 55l373 -374l-310 -310zM139 319l310 310l180 -180l-256 -256l194 -193l-55 -55zM139 1343l310 310l180 -180l-256 -256l194 -193l-55 -55z" />
<glyph unicode="&#xd8;" horiz-adv-x="512" d="M-117 63l310 310l374 -373l-55 -55l-193 194l-202 -202l450 -449l-55 -55zM-117 1087l566 566l180 -180l-512 -512l450 -449l-55 -55z" />
<glyph unicode="&#xda;" horiz-adv-x="512" d="M-117 63l512 512l-450 449l55 55l629 -630l-512 -512l450 -449l-55 -55zM-55 1536l55 55l567 -567l-55 -55z" />
<glyph unicode="&#xdf;" horiz-adv-x="1024" d="M-117 63l256 256l-194 193l55 55l373 -374l-256 -256l332 -332l512 512l180 -180l-566 -566zM-117 1087l256 256l-194 193l55 55l373 -374l-256 -256l332 -332l512 512l180 -180l-512 -512l256 -256l-310 -310l-180 180l256 256zM395 1087l256 256l-194 193l55 55 l373 -374l-310 -310z" />
<glyph unicode="&#xe0;" d="M-117 63l1024 1024l-450 449l55 55l629 -630l-1078 -1078zM-117 -449l2102 2102l180 -180l-2102 -2102zM-117 575l256 256l-194 193l55 55l373 -374l-310 -310zM-55 1536l55 55l567 -567l-55 -55zM969 1536l55 55l193 -194l256 256l180 -180l-310 -310z" />
<glyph unicode="&#xe3;" horiz-adv-x="512" d="M-117 1087l256 256l-194 193l55 55l567 -567l-55 -55l-193 194l-202 -202l450 -449l-55 -55zM-55 0l55 55l193 -194l202 202l-450 449l55 55l629 -630l-256 -256l194 -193l-55 -55z" />
<glyph unicode="&#xe4;" d="M-117 63l566 566l182 -180l-568 -566zM-117 -449l1024 1024l-332 332l-512 -512l-180 180l566 566l694 -692l-1080 -1078zM-117 1087l566 566l182 -180l-568 -566zM651 1343l310 310l182 -180l-256 -256l330 -332l768 768l182 -180l-824 -822zM1163 1343l310 310 l182 -180l-312 -310z" />
<glyph unicode="&#xe5;" horiz-adv-x="512" d="M-55 0l55 55l193 -194l256 256l180 -180l-310 -310zM-55 512l55 55l193 -194l256 256l180 -180l-310 -310zM-55 1024l55 55l193 -194l256 256l180 -180l-310 -310zM-55 1536l55 55l193 -194l256 256l180 -180l-310 -310z" />
<glyph unicode="&#xe6;" d="M-55 0l55 55l567 -567l-55 -55zM-55 512l55 55l1079 -1079l-55 -55zM-55 1024l55 55l567 -567l-55 -55zM-55 1536l55 55l823 -823l-55 -55zM457 1536l55 55l705 -706l768 768l180 -180l-1280 -1280l706 -705l-55 -55l-885 886l512 512zM969 1536l55 55l311 -311l-55 -55z M1163 319l822 822l180 -180l-768 -768l706 -705l-55 -55zM1675 319l310 310l180 -180l-256 -256l194 -193l-55 -55z" />
<glyph unicode="&#xe7;" d="M-117 575l1078 1078l63 -64v2l1079 -1079l-55 -55l-961 962l-970 -970l768 -768l-310 -310l-180 180l256 256zM-117 1087l566 566l180 -180l-566 -566zM-55 0l55 55l311 -311l-55 -55zM395 575l566 566l1142 -1141l-55 -55l-193 194l-202 -202l450 -449l-55 -55 l-1079 1079l55 55l449 -450l202 202l-588 588l-458 -458l962 -961l-55 -55zM1481 1536l55 55l567 -567l-55 -55z" />
<glyph unicode="&#xe8;" d="M-117 63l256 256l-194 193l55 55l373 -374l-310 -310zM-117 -449l768 768l-706 705l55 55l885 -886l-822 -822zM-55 1536l55 55l2103 -2103l-55 -55zM395 -449l566 566l630 -629l-55 -55l-449 450l-512 -512z" />
<glyph unicode="&#xe9;" horiz-adv-x="512" d="M-55 0l55 55l567 -567l-55 -55zM-55 512l55 55l567 -567l-55 -55zM-55 1024l55 55l193 -194l256 256l180 -180l-310 -310zM-55 1536l55 55l193 -194l256 256l180 -180l-310 -310z" />
<glyph unicode="&#xeb;" d="M-117 63l768 768l-704 705l53 55l887 -886l-824 -822zM-117 -449l1078 1078l182 -180l-1080 -1078zM-117 575l256 256l-192 193l53 55l375 -374l-312 -310zM395 -449l822 822l886 -885l-55 -55l-705 706l-768 -768zM907 -449l310 310l374 -373l-55 -55l-193 194 l-256 -256z" />
<glyph unicode="&#xee;" horiz-adv-x="512" d="M-117 -449l512 512l-450 449l55 55l629 -630l-566 -566zM-117 1087l566 566l180 -180l-566 -566zM139 831l310 310l180 -180l-256 -256l194 -193l-55 -55z" />
<glyph unicode="&#xf1;" d="M-55 0l55 55l193 -194l202 202l-450 449l55 55l629 -630l-310 -310zM-55 1024l55 55l449 -450l202 202l-256 256l566 566l512 -512l202 202l-194 193l55 55l373 -374l-310 -310l-512 512l-458 -458l256 -256l-310 -310zM-55 1536l55 55l193 -194l256 256l180 -180 l-310 -310zM395 -449l566 566l180 -180l-566 -566zM651 319l310 310l1142 -1141l-55 -55l-961 962l-256 -256zM969 1024l55 55l1079 -1079l-55 -55zM1225 -256l55 55l311 -311l-55 -55zM1675 831l310 310l180 -180l-256 -256l194 -193l-55 -55z" />
<glyph unicode="&#xf5;" horiz-adv-x="512" d="M-117 63l566 566l180 -180l-256 -256l194 -193l-55 -55l-193 194l-256 -256zM-117 -449l310 310l180 -180l-310 -310zM-117 575l310 310l180 -180l-310 -310zM-117 1087l566 566l180 -180l-256 -256l194 -193l-55 -55l-193 194l-256 -256z" />
<glyph unicode="&#xf7;" horiz-adv-x="512" d="M-117 -449l256 256l-194 193l55 55l311 -311h-2l64 -63l-310 -310zM-55 512l55 55l567 -567l-55 -55zM-55 1024l55 55l567 -567l-55 -55zM139 1343l310 310l180 -180l-256 -256l194 -193l-55 -55l-311 311h2z" />
<glyph unicode="&#xf8;" horiz-adv-x="512" d="M-117 -449l512 512l-450 449l55 55l629 -630l-566 -566zM-55 1024l55 55l193 -194l202 202l-450 449l55 55l629 -630l-310 -310z" />
<glyph unicode="&#xfc;" horiz-adv-x="512" d="M-117 -449l256 256l256 256l-512 512l566 566l180 -180l-512 -512l512 -512l-566 -566zM-117 1087l566 566l180 -180l-566 -566z" />
<glyph unicode="&#x131;" d="M-117 -449l310 310l180 -180l-310 -310zM-117 1087l566 566l180 -180l-566 -566zM-55 512l55 55l449 -450l1536 1536l180 -180l-1590 -1590zM139 831l822 822l180 -180l-768 -768l76 -76l1024 1024l180 -180l-1078 -1078zM395 -449l1334 1334l374 -373l-55 -55l-193 194 l-1280 -1280zM907 -449l822 822l436 -436l-566 -566l-180 180l512 512l-76 76l-768 -768z" />
<glyph unicode="&#x152;" d="M-117 63l768 768l-332 332l-256 -256l-180 180l566 566l180 -180l-256 -256l512 -512l-822 -822zM-117 -449l1078 1078l768 -768l256 256l180 -180l-566 -566l-180 180l256 256l-588 588l-1024 -1024zM-117 575l310 310l180 -180l-310 -310zM395 -449l566 566l180 -180 l-566 -566zM651 1343l310 310l180 -180l-256 -256l332 -332l768 768l180 -180l-768 -768l332 -332l256 256l180 -180l-310 -310zM907 -449l310 310l180 -180l-310 -310zM1163 1343l310 310l180 -180l-310 -310zM1675 831l310 310l180 -180l-310 -310z" />
<glyph unicode="&#x153;" d="M-55 0l55 55l193 -194l458 458l-706 705l55 55l885 -886l-512 -512l194 -193l-55 -55zM-55 512l55 55l311 -311l-55 -55zM-55 1536l55 55l961 -962l714 714l-194 193l55 55l567 -567l-55 -55l-193 194l-768 -768zM457 1536l55 55l567 -567l-55 -55zM651 -193l1078 1078 l374 -373l-55 -55l-193 194l-458 -458l706 -705l-55 -55l-705 706l-458 -458l194 -193l-55 -55zM969 1536l55 55l311 -311l-55 -55zM1225 -256l55 55l311 -311l-55 -55zM1737 256l55 55l311 -311l-55 -55z" />
<glyph unicode="&#x192;" d="M-117 63l256 256l-194 193l55 55l373 -374l-256 -256l194 -193l-55 -55zM-117 1087l256 256l-194 193l55 55l193 -194l256 256l180 -180l-256 -256l194 -193l-55 -55l-193 194l-256 -256zM201 768l55 55l193 -194l458 458l-194 193l55 55l193 -194l256 256l180 -180 l-256 -256l194 -193l-55 -55l-193 194l-202 -202l332 -332l458 458l-194 193l55 55l567 -567l-55 -55l-193 194l-458 -458l194 -193l-55 -55l-193 194l-458 -458l194 -193l-55 -55l-193 194l-256 -256l-180 180l256 256l-194 193l55 55l193 -194l458 458l-332 332l-202 -202 l194 -193l-55 -55zM1225 -256l55 55l193 -194l458 458l-194 193l55 55l373 -374l-566 -566zM1481 1536l55 55l567 -567l-55 -55z" />
<glyph unicode="&#x2c6;" horiz-adv-x="512" d="M-117 63l256 256l-194 193l55 55l373 -374l-310 -310zM-117 -449l566 566l180 -180l-566 -566zM-117 1087l566 566l180 -180l-512 -512l450 -449l-55 -55z" />
<glyph unicode="&#x2c7;" horiz-adv-x="1024" d="M-117 1087l566 566l180 -180l-566 -566zM-55 0l55 55l567 -567l-55 -55zM-55 512l55 55l1079 -1079l-55 -55zM139 831l822 822l180 -180l-822 -822zM457 512l55 55l567 -567l-55 -55zM651 831l310 310l180 -180l-256 -256l194 -193l-55 -55z" />
<glyph unicode="&#x2d8;" horiz-adv-x="512" d="M-117 63l512 512l-512 512l566 566l180 -180l-512 -512l512 -512l-566 -566zM-117 -449l566 566l180 -180l-566 -566z" />
<glyph unicode="&#x2d9;" horiz-adv-x="1024" d="M-117 1087l566 566l180 -180l-512 -512l332 -332l256 256l374 -373l-55 -55l-193 194l-256 -256zM-55 0l55 55l567 -567l-55 -55zM-55 512l55 55l1079 -1079l-55 -55zM395 1087l566 566l180 -180l-566 -566zM713 256l55 55l311 -311l-55 -55z" />
<glyph unicode="&#x2da;" d="M-117 63l1590 1590l180 -180l-256 -256l706 -705l-55 -55l-705 706l-1280 -1280zM-117 -449l566 566l180 -180l-566 -566zM-117 575l566 566l180 -180l-566 -566zM-117 1087l566 566l180 -180l-566 -566zM395 -449l1024 1024l-76 76l-512 -512l-180 180l566 566l886 -885 l-55 -55l-449 450l-1024 -1024zM651 1343l310 310l180 -180l-310 -310zM907 -449l566 566l630 -629l-55 -55l-449 450l-512 -512zM1675 1343l310 310l180 -180l-256 -256l194 -193l-55 -55z" />
<glyph unicode="&#x2db;" d="M-117 63l768 768l-76 76l-512 -512l-180 180l566 566l256 -256l202 202l-256 256l310 310l180 -180l-256 -256l76 -76l512 512l180 -180l-1590 -1590zM-117 1087l256 256l-194 193l55 55l373 -374l-310 -310zM139 -193l1846 1846l180 -180l-768 -768l76 -76l512 512 l180 -180l-566 -566l-256 256l-202 -202l256 -256l-822 -822zM391 -319l58 -58l696 696l-58 58zM907 -449l566 566l630 -629l-55 -55l-193 194l-256 -256l-180 180l256 256l-76 76l-512 -512zM1675 319l310 310l180 -180l-256 -256l194 -193l-55 -55z" />
<glyph unicode="&#x2dc;" d="M-117 63l256 256l-194 193l55 55l373 -374l-310 -310zM-55 1024l55 55l1079 -1079l-55 -55zM-55 1536l55 55l961 -962l256 256l180 -180l-310 -310zM139 -193l310 310l512 -512l458 458l-256 256l310 310l630 -629l-55 -55l-449 450l-202 -202l256 -256l-566 -566 l-512 512l-202 -202l194 -193l-55 -55zM457 1536l55 55l311 -311l-55 -55zM907 1087l566 566l180 -180l-566 -566zM1419 -449l310 310l374 -373l-55 -55l-193 194l-256 -256zM1419 1087l310 310l374 -373l-55 -55l-193 194l-202 -202l450 -449l-55 -55z" />
<glyph unicode="&#x2dd;" d="M-117 63l768 768l-256 256l566 566l180 -180l-512 -512l256 -256l-822 -822zM-117 -449l1280 1280l-256 256l566 566l180 -180l-512 -512l332 -332l512 512l180 -180l-566 -566l-256 256l-1280 -1280zM-117 575l310 310l180 -180l-310 -310zM-117 1087l566 566l180 -180 l-566 -566zM395 -449l822 822l256 -256l512 512l180 -180l-566 -566l-256 256l-768 -768zM907 -449l310 310l180 -180l-310 -310zM1419 -449l566 566l180 -180l-566 -566zM1419 1087l566 566l180 -180l-566 -566z" />
<glyph unicode="&#x3a9;" d="M-117 63l310 310l180 -180l-310 -310zM-117 -449l768 768l-332 332l-256 -256l-180 180l256 256l-256 256l566 566l180 -180l-512 -512l76 -76l512 512l180 -180l-512 -512l76 -76l256 256l180 -180l-256 -256l332 -332l256 256l180 -180l-256 -256l76 -76l512 512 l180 -180l-512 -512l76 -76l512 512l180 -180l-566 -566l-256 256l-256 -256l-180 180l256 256l-332 332l-768 -768zM395 -449l310 310l180 -180l-310 -310zM907 575l768 768l-76 76l-512 -512l-180 180l566 566l692 -692l-566 -566l-180 180l512 512l-76 76l-768 -768z" />
<glyph unicode="&#x3c0;" d="M-117 63l512 512l-450 449l55 55l629 -630l-566 -566zM-117 -449l822 822l886 -885l-55 -55l-705 706l-768 -768zM-55 1536l55 55l567 -567l-55 -55zM395 -449l310 310l374 -373l-55 -55l-193 194l-256 -256zM457 1536l55 55l705 -706l768 768l180 -180l-768 -768 l706 -705l-55 -55zM713 768l55 55l1335 -1335l-55 -55zM969 1536l55 55l193 -194l256 256l180 -180l-310 -310zM1675 831l310 310l180 -180l-256 -256l194 -193l-55 -55z" />
<glyph unicode="&#x2000;" horiz-adv-x="1024" />
<glyph unicode="&#x2001;" />
<glyph unicode="&#x2002;" horiz-adv-x="1024" />
<glyph unicode="&#x2003;" />
<glyph unicode="&#x2013;" horiz-adv-x="512" d="M-117 -449l512 512l-256 256l310 310l180 -180l-256 -256l256 -256l-566 -566zM-117 575l256 256l-256 256l566 566l180 -180l-512 -512l256 -256l-310 -310z" />
<glyph unicode="&#x2014;" horiz-adv-x="512" d="M-117 63l256 256l-194 193l55 55l373 -374l-256 -256l450 -449l-55 -55zM-55 1536l55 55l629 -630l-256 -256l194 -193l-55 -55l-373 374l256 256z" />
<glyph unicode="&#x2018;" d="M-117 -449l512 512l-450 449l55 55l449 -450l512 512l118 -117l1024 -1024l-55 -55l-961 962l-458 -458l450 -449l-55 -55l-449 450l-512 -512zM-55 1024l55 55l567 -567l-55 -55zM-55 1536l55 55l823 -823l-55 -55zM457 1536l55 55l705 -706l458 458l-194 193l55 55 l193 -194l256 256l180 -180l-256 -256l194 -193l-55 -55l-193 194l-458 -458l706 -705l-55 -55zM969 0l55 55l567 -567l-55 -55zM969 1536l55 55l311 -311l-55 -55zM1737 768l55 55l311 -311l-55 -55z" />
<glyph unicode="&#x2019;" d="M-117 63l768 768l-706 705l55 55l705 -706l768 768l180 -180l-1590 -1590zM-117 -449l1078 1078l118 -117l1024 -1024l-55 -55l-961 962l-1024 -1024zM-117 575l256 256l-194 193l55 55l373 -374l-310 -310zM395 -449l566 566l630 -629l-55 -55l-449 450l-512 -512z M457 1536l55 55l193 -194l256 256l180 -180l-310 -310zM1163 831l822 822l180 -180l-822 -822zM1419 575l566 566l180 -180l-512 -512l450 -449l-55 -55z" />
<glyph unicode="&#x201a;" horiz-adv-x="1024" d="M-117 63l256 256l-194 193l55 55l373 -374l-310 -310zM-117 -449l566 566l436 -436l-310 -310l-180 180l256 256l-76 76l-512 -512zM-55 1024l55 55l1079 -1079l-55 -55zM139 1343l310 310l180 -180l-256 -256l76 -76l512 512l180 -180l-566 -566zM651 831l310 310 l180 -180l-256 -256l194 -193l-55 -55z" />
<glyph unicode="&#x201c;" d="M-117 63l566 566l180 -180l-256 -256l76 -76l458 458l-706 705l55 55l1847 -1847l-55 -55l-961 962l-458 -458l76 -76l256 256l180 -180l-566 -566l-180 180l256 256l-76 76l-512 -512l-180 180l512 512l-76 76l-256 -256zM-55 1024l55 55l311 -311l-55 -55zM457 1536 l55 55l311 -311l-55 -55zM907 1087l566 566l180 -180l-256 -256l76 -76l512 512l180 -180l-512 -512l76 -76l256 256l180 -180l-566 -566l-180 180l256 256l-76 76l-256 -256l-180 180l256 256l-76 76l-256 -256zM1225 -256l55 55l311 -311l-55 -55zM1737 256l55 55 l311 -311l-55 -55z" />
<glyph unicode="&#x201d;" d="M-117 63l512 512l-76 76l-256 -256l-180 180l566 566l256 -256l256 256l180 -180l-310 -310l-256 256l-202 -202l256 -256l-566 -566zM-117 1087l566 566l374 -373l-55 -55l-193 194l-512 -512zM139 -193l310 310l256 -256l256 256l436 -436l-310 -310l-180 180l256 256 l-76 76l-256 -256l-256 256l-202 -202l194 -193l-55 -55zM651 319l310 310l512 -512l256 256l374 -373l-55 -55l-193 194l-202 -202l450 -449l-55 -55l-961 962l-256 -256zM969 1536l55 55l193 -194l256 256l256 -256l256 256l180 -180l-310 -310l-256 256l-202 -202 l256 -256l-256 -256l76 -76l256 256l374 -373l-55 -55l-193 194l-256 -256l-436 436l256 256z" />
<glyph unicode="&#x201e;" d="M-55 0l55 55l449 -450l256 256l374 -373l-55 -55l-193 194l-256 -256zM-55 512l55 55l449 -450l202 202l-706 705l55 55l1217 -1218l256 256l180 -180l-310 -310l-512 512l-256 -256zM-55 1536l55 55l449 -450l256 256l512 -512l256 256l180 -180l-310 -310l-512 512 l-256 -256zM713 768l55 55l449 -450l256 256l256 -256l256 256l180 -180l-310 -310l-256 256l-256 -256zM969 1536l55 55l193 -194l256 256l256 -256l256 256l180 -180l-310 -310l-256 256l-256 -256zM1675 -193l310 310l180 -180l-310 -310zM1675 831l310 310l180 -180 l-310 -310z" />
<glyph unicode="&#x2020;" horiz-adv-x="1024" d="M-117 63l822 822l180 -180l-768 -768l450 -449l-55 -55zM-117 575l256 256l-194 193l55 55l373 -374l-310 -310zM-55 1536l55 55l567 -567l-55 -55zM395 63l566 566l180 -180l-512 -512l450 -449l-55 -55zM457 1536l55 55l567 -567l-55 -55z" />
<glyph unicode="&#x2021;" d="M-117 63l310 310l180 -180l-310 -310zM-117 575l256 256l-194 193l55 55l705 -706l256 256l180 -180l-256 -256l76 -76l768 768l180 -180l-768 -768l194 -193l-55 -55l-193 194l-256 -256l-180 180l256 256l-76 76l-256 -256l-180 180l256 256l-332 332l-256 -256z M201 -256l55 55l311 -311l-55 -55zM201 1280l55 55l193 -194l202 202l-194 193l55 55l193 -194l256 256l180 -180l-256 -256l76 -76l512 512l630 -629l-55 -55q-113 113 -222.5 226.5t-226.5 223.5l-202 -202l194 -193l-55 -55l-193 194l-202 -202l194 -193l-55 -55 l-449 450l-202 -202l194 -193l-55 -55zM1419 -449l256 256l-194 193l55 55l193 -194l256 256l180 -180l-256 -256l194 -193l-55 -55l-193 194l-256 -256zM1675 319l310 310l180 -180l-310 -310z" />
<glyph unicode="&#x2022;" horiz-adv-x="1024" d="M-117 63l310 310l256 -256l512 512l180 -180l-566 -566l-256 256l-256 -256zM-117 -449l310 310l180 -180l-310 -310zM-117 575l566 566l256 -256l256 256l180 -180l-310 -310l-256 256l-512 -512zM-117 1087l566 566l180 -180l-566 -566zM395 -449l566 566l180 -180 l-566 -566zM651 1343l310 310l180 -180l-310 -310z" />
<glyph unicode="&#x2026;" horiz-adv-x="1024" d="M-117 63l1024 1024l-332 332l-512 -512l-180 180l566 566l692 -692l-1078 -1078zM-117 -449l1078 1078l180 -180l-512 -512l450 -449l-55 -55l-449 450l-512 -512zM-117 575l566 566l180 -180l-566 -566z" />
<glyph unicode="&#x2030;" horiz-adv-x="1024" d="M-117 63l768 768l-332 332l-256 -256l-180 180l310 310l256 -256l202 202l-194 193l55 55l567 -567l-55 -55l-193 194l-202 -202l256 -256l-822 -822zM-117 -449l310 310l374 -373l-55 -55l-193 194l-256 -256zM-117 575l310 310l180 -180l-310 -310zM457 0l55 55 l567 -567l-55 -55zM651 319l310 310l180 -180l-256 -256l194 -193l-55 -55z" />
<glyph unicode="&#x2039;" d="M-117 -449l256 256l-194 193l55 55l311 -311h-2l64 -63l-310 -310zM-117 1087l256 256l-194 193l55 55l311 -311h-2l64 -63l-256 -256l194 -193l-55 -55l-311 311h2zM-55 512l55 55l961 -962l768 768l63 -64v2l311 -311l-55 -55l-193 194l-768 -768l-63 64v-2zM395 575 l256 256l-194 193h2l-64 63l256 256l-194 193l55 55l311 -311h-2l64 -63l-256 -256l194 -193h-2l64 -63l-256 -256l332 -332l714 714l-194 193h2l-64 63l256 256l-194 193l55 55l311 -311h-2l64 -63l-256 -256l450 -449l-55 -55l-193 194l-768 -768l-63 64v-2l-567 567h2z M907 575l256 256l-194 193h2l-64 63l256 256l-194 193l55 55l311 -311h-2l64 -63l-256 -256l194 -193h-2l64 -63l-310 -310zM1419 -449l310 310l180 -180l-310 -310z" />
<glyph unicode="&#x203a;" d="M-117 63l310 310l256 -256l256 256l256 -256l458 458l-588 588l-256 -256l-256 256l-256 -256l-180 180l310 310l256 -256l512 512l180 -180l-256 -256l768 -768l-566 -566l-256 256l-256 -256l-256 256l-256 -256zM-117 -449l310 310l256 -256l256 256l180 -180 l-310 -310l-256 256l-256 -256zM-117 575l310 310l256 -256l256 256l374 -373l-55 -55l-193 194l-256 -256l-63 64v-2l-193 194l-256 -256zM907 -449l1024 1024l-768 768l310 310l180 -180l-256 -256l768 -768l-1078 -1078zM1419 -449l310 310l374 -373l-55 -55l-193 194 l-256 -256zM1737 1280l55 55l311 -311l-55 -55z" />
<glyph unicode="&#x2044;" horiz-adv-x="512" d="M-117 63l310 310l63 -64v2l311 -311l-55 -55l-193 194l-256 -256zM-117 -449l310 310l63 -64v2l311 -311l-55 -55l-193 194l-256 -256zM-55 1024l55 55l193 -194l256 256l180 -180l-310 -310l-63 64v-2zM-55 1536l55 55l193 -194l256 256l180 -180l-310 -310l-63 64v-2z " />
<glyph unicode="&#x20ac;" d="M-117 63l512 512l-450 449l55 55l449 -450l256 256l63 -64v2l193 -194l768 768l63 -64v2l311 -311l-55 -55l-193 194l-768 -768l-63 64v-2l-193 194l-768 -768zM-117 -449l822 822l63 -64v2l193 -194l768 768l180 -180l-822 -822l-63 64v-2l-193 194l-768 -768zM139 1343 l310 310l180 -180l-256 -256l76 -76l256 256l63 -64v2l193 -194l512 512l180 -180l-566 -566l-63 64v-2l-193 194l-256 -256l-63 64v-2l-311 311h2zM395 -449l310 310l63 -64v2l193 -194l1024 1024l180 -180l-1078 -1078l-63 64v-2l-193 194l-256 -256zM1419 -449l566 566 l180 -180l-566 -566z" />
<glyph unicode="&#x2122;" d="M-117 -449l512 512l-450 449l55 55l567 -567h-2l64 -63l-566 -566zM-55 1024l55 55l449 -450l512 512l180 -180l-566 -566l-63 64v-2zM139 1343l310 310l180 -180l-310 -310zM395 -449l310 310l63 -64v2l311 -311l-55 -55l-193 194l-256 -256zM395 1087l566 566l63 -64v2 l1079 -1079l-55 -55l-193 194l-512 -512l-180 180l512 512l-588 588l-512 -512zM651 319l566 566l180 -180l-512 -512l332 -332l512 512l180 -180l-512 -512l76 -76l512 512l180 -180l-566 -566l-63 64v-2l-823 823h2zM1481 1536l55 55l567 -567l-55 -55z" />
<glyph unicode="&#x2202;" d="M-117 63l512 512l-450 449l55 55l449 -450l512 512l948 -948l-822 -822l-180 180l768 768l-588 588l-1024 -1024zM-117 -449l1078 1078l436 -436l-822 -822l-180 180l768 768l-76 76l-1024 -1024zM-55 1536l55 55l449 -450l512 512l180 -180l-566 -566zM1163 1343 l310 310l630 -629l-55 -55l-449 450l-202 -202l706 -705l-55 -55zM1419 -449l566 566l180 -180l-566 -566z" />
<glyph unicode="&#x2206;" d="M-55 0l55 55l193 -194l1792 1792l180 -180l-1792 -1792l194 -193l-55 -55zM-55 512l55 55l311 -311l-55 -55zM-55 1024l55 55l449 -450l458 458l-450 449l55 55l629 -630l-566 -566zM-55 1536l55 55l567 -567l-55 -55zM713 -256l55 55l311 -311l-55 -55zM907 63l566 566 l630 -629l-55 -55l-449 450l-458 -458l450 -449l-55 -55zM969 1536l55 55l193 -194l256 256l180 -180l-310 -310zM1481 0l55 55l567 -567l-55 -55zM1675 831l310 310l180 -180l-256 -256l194 -193l-55 -55z" />
<glyph unicode="&#x220f;" d="M-117 63l768 768l-706 705l55 55l885 -886l-822 -822zM-117 -449l1334 1334l180 -180l-1334 -1334zM-117 575l256 256l-194 193l55 55l373 -374l-310 -310zM395 -449l1590 1590l180 -180l-768 -768l706 -705l-55 -55l-705 706l-768 -768zM457 1536l55 55l449 -450 l512 512l180 -180l-566 -566zM907 -449l310 310l63 -64v2l311 -311l-55 -55l-193 194l-256 -256zM1419 1087l566 566l180 -180l-566 -566zM1675 319l310 310l180 -180l-256 -256l194 -193l-55 -55z" />
<glyph unicode="&#x2211;" d="M-117 575l256 256l-256 256l566 566l180 -180l-512 -512l256 -256l-310 -310zM139 319l512 512l-256 256l566 566l180 -180l-512 -512l76 -76l768 768l180 -180l-1280 -1280l194 -193l-55 -55zM201 -256l55 55l311 -311l-55 -55zM651 -193l256 256l-256 256l566 566 l180 -180l-512 -512l256 -256l-256 -256l194 -193l-55 -55zM1163 319l512 512l-256 256l566 566l180 -180l-512 -512l256 -256l-512 -512l194 -193l-55 -55zM1225 -256l55 55l311 -311l-55 -55zM1675 -193l256 256l-256 256l310 310l180 -180l-256 -256l256 -256l-256 -256 l194 -193l-55 -55z" />
<glyph unicode="&#x221a;" d="M-55 0l55 55l449 -450l1024 1024l180 -180l-512 -512l76 -76l256 256l630 -629l-55 -55l-449 450l-512 -512l-180 180l256 256l-76 76l-512 -512zM-55 512l55 55l311 -311l-55 -55zM-55 1024l55 55l449 -450l1024 1024l374 -373l-55 -55l-193 194l-458 -458l76 -76 l256 256l630 -629l-55 -55l-449 450l-1024 -1024l-180 180l768 768l-76 76l-512 -512zM-55 1536l55 55l449 -450l256 256l180 -180l-310 -310l-63 64v-2zM1737 256l55 55l311 -311l-55 -55z" />
<glyph unicode="&#x221e;" d="M-117 63l566 566l180 -180l-566 -566zM-117 -449l1024 1024l-332 332l-512 -512l-180 180l512 512l-256 256l310 310l180 -180l-256 -256l332 -332l768 768l180 -180l-768 -768l332 -332l768 768l180 -180l-768 -768l332 -332l256 256l180 -180l-310 -310l-256 256 l-512 -512l-180 180l512 512l-332 332l-1024 -1024zM395 -449l566 566l180 -180l-566 -566zM651 1343l310 310l180 -180l-310 -310zM1163 831l822 822l180 -180l-822 -822zM1675 319l310 310l180 -180l-310 -310z" />
<glyph unicode="&#x222b;" d="M-117 575l566 566l1654 -1653l-55 -55l-1473 1474l-512 -512zM-55 0l55 55l567 -567l-55 -55zM-55 1536l55 55l311 -311l-55 -55zM139 319l310 310l1142 -1141l-55 -55l-961 962l-202 -202l706 -705l-55 -55zM457 1536l55 55l1217 -1218l256 256l180 -180l-310 -310z M969 1536l55 55l705 -706l202 202l-450 449l55 55l629 -630l-310 -310z" />
<glyph unicode="&#x2248;" d="M-117 -449l256 256l-194 193l55 55l193 -194l202 202l-450 449l55 55l629 -630l-566 -566zM-117 1087l310 310l63 -64v2l1847 -1847l-55 -55l-705 706l-202 -202l450 -449l-55 -55l-629 630l256 256l-76 76l-256 -256zM135 961l570 -570l184 184l-570 570zM395 -449 l310 310l374 -373l-55 -55l-193 194l-256 -256zM457 1536l55 55l705 -706l202 202l-450 449l55 55l629 -630l-256 -256l76 -76l256 256l374 -373l-55 -55l-193 194l-202 -202l450 -449l-55 -55zM1481 1536l55 55l193 -194l256 256l180 -180l-310 -310l-63 64v-2z" />
<glyph unicode="&#x2260;" horiz-adv-x="512" d="M-117 63l256 256l-194 193l55 55l567 -567l-55 -55l-193 194l-256 -256zM-117 -449l310 310l374 -373l-55 -55l-193 194l-256 -256zM-55 1024l55 55l193 -194l256 256l180 -180l-256 -256l194 -193l-55 -55zM-55 1536l55 55l193 -194l256 256l180 -180l-310 -310z" />
<glyph unicode="&#x2264;" horiz-adv-x="512" d="M-117 575l512 512l-256 256l310 310l180 -180l-256 -256l256 -256l-512 -512l194 -193l-55 -55zM139 -193l310 310l180 -180l-256 -256l194 -193l-55 -55z" />
<glyph unicode="&#x2265;" horiz-adv-x="512" d="M-117 63l512 512l-194 193l55 55l373 -374l-512 -512l256 -256l-310 -310l-180 180l256 256zM-117 1087l256 256l-194 193l55 55l373 -374l-310 -310z" />
<glyph unicode="&#x25ca;" d="M-117 -449l512 512l-194 193l55 55l373 -374l-566 -566zM-117 1087l310 310l180 -180l-256 -256l332 -332l202 202l-256 256l566 566l180 -180l-512 -512l962 -961l-55 -55l-705 706l-202 -202l512 -512l-566 -566l-180 180l512 512zM907 -449l310 310l180 -180 l-310 -310zM969 1024l55 55l449 -450l202 202l-256 256l566 566l180 -180l-512 -512l450 -449l-55 -55l-193 194l-202 -202l512 -512l-566 -566l-180 180l512 512zM1163 1343l310 310l180 -180l-310 -310z" />
<glyph unicode="&#x25fc;" horiz-adv-x="1648" d="M0 0v1649h1649v-1649h-1649z" />
<glyph unicode="&#xf8ff;" d="M-55 0l55 55l567 -567l-55 -55zM-55 512l55 55l311 -311l-55 -55zM-55 1024l55 55l193 -194l768 768l180 -180l-768 -768l1218 -1217l-55 -55zM-55 1536l55 55l193 -194l256 256l180 -180l-310 -310zM457 0l55 55l567 -567l-55 -55zM651 831l822 822l180 -180l-512 -512 l962 -961l-55 -55l-961 962l-202 -202l450 -449l-55 -55zM1419 1087l566 566l180 -180l-512 -512l450 -449l-55 -55zM1481 0l55 55l567 -567l-55 -55z" />
<glyph unicode="&#xfb01;" d="M-55 0l55 55l567 -567l-55 -55zM-55 512l55 55l449 -450l1536 1536l180 -180l-256 -256l194 -193l-55 -55l-193 194l-1226 -1226l450 -449l-55 -55zM-55 1024l55 55l449 -450l714 714l-194 193l55 55l373 -374l-822 -822zM-55 1536l55 55q113 -113 222.5 -226.5 t226.5 -223.5l202 202l-194 193l55 55l373 -374l-310 -310zM907 63l822 822l374 -373l-55 -55l-193 194l-714 -714l450 -449l-55 -55zM1419 63l310 310l374 -373l-55 -55l-193 194l-202 -202l450 -449l-55 -55z" />
<glyph unicode="&#xfb02;" d="M-117 63l1590 1590l180 -180l-768 -768l76 -76l1024 1024l180 -180l-1024 -1024l332 -332l512 512l180 -180l-512 -512l256 -256l-310 -310l-180 180l256 256l-332 332l-768 -768l-180 180l768 768l-332 332l-768 -768zM-117 -449l822 822l180 -180l-822 -822zM-117 575 l512 512l-76 76l-256 -256l-180 180l310 310l256 -256l512 512l180 -180l-1078 -1078zM907 -449l310 310l180 -180l-310 -310zM1419 575l566 566l180 -180l-566 -566z" />
<glyph />
<glyph />
<glyph />
<glyph />
<glyph />
<glyph />
<glyph />
<glyph />
<glyph />
<glyph />
<glyph />
<glyph />
<glyph />
<glyph />
<glyph />
<glyph />
<glyph />
<glyph />
<glyph />
<glyph />
<glyph />
<glyph />
<glyph />
<glyph />
<glyph />
<glyph />
<glyph />
<glyph />
<glyph />
<glyph />
<glyph />
<glyph />
<glyph />
<glyph />
<glyph />
<glyph />
<glyph />
<glyph />
<glyph />
<glyph />
<glyph />
<glyph horiz-adv-x="1024" />
<glyph />
<glyph />
<glyph />
</font>
</defs>
</svg>
